<?xml version="1.0" encoding="UTF-8"?>
<svg xmlns="http://www.w3.org/2000/svg" width="1600" height="820" viewBox="0 0 1600 820">
<style>
text{font-family:Segoe UI,Arial,sans-serif;fill:#202124}
.small{font-size:20px;fill:#4f5b66}
.tick{font-size:18px;fill:#5f6368}
.grid{stroke:#dfe3e8;stroke-width:1}
</style>
<rect width="100%" height="100%" fill="#ffffff"/>
<text x="110" y="45" font-size="30" font-weight="700">Daily alert-location hours in Ukraine</text>
<text x="110" y="75" class="small">Clean air raid alerts intervals; simultaneous alerts in different locations are summed. Locations: 272.</text>
<line class="grid" x1="110" y1="725.0" x2="1550" y2="725.0"/>
<text class="tick" x="94" y="731.0" text-anchor="end">0</text>
<line class="grid" x1="110" y1="567.5" x2="1550" y2="567.5"/>
<text class="tick" x="94" y="573.5" text-anchor="end">500</text>
<line class="grid" x1="110" y1="410.0" x2="1550" y2="410.0"/>
<text class="tick" x="94" y="416.0" text-anchor="end">1,000</text>
<line class="grid" x1="110" y1="252.5" x2="1550" y2="252.5"/>
<text class="tick" x="94" y="258.5" text-anchor="end">1,500</text>
<line class="grid" x1="110" y1="95.0" x2="1550" y2="95.0"/>
<text class="tick" x="94" y="101.0" text-anchor="end">2,000</text>
<line class="grid" x1="125.7" y1="95" x2="125.7" y2="725"/>
<text class="tick" x="125.7" y="761" text-anchor="middle" transform="rotate(35 125.7 761)">2022-04</text>
<line class="grid" x1="209.8" y1="95" x2="209.8" y2="725"/>
<text class="tick" x="209.8" y="761" text-anchor="middle" transform="rotate(35 209.8 761)">2022-07</text>
<line class="grid" x1="294.9" y1="95" x2="294.9" y2="725"/>
<text class="tick" x="294.9" y="761" text-anchor="middle" transform="rotate(35 294.9 761)">2022-10</text>
<line class="grid" x1="379.9" y1="95" x2="379.9" y2="725"/>
<text class="tick" x="379.9" y="761" text-anchor="middle" transform="rotate(35 379.9 761)">2023-01</text>
<line class="grid" x1="463.1" y1="95" x2="463.1" y2="725"/>
<text class="tick" x="463.1" y="761" text-anchor="middle" transform="rotate(35 463.1 761)">2023-04</text>
<line class="grid" x1="547.2" y1="95" x2="547.2" y2="725"/>
<text class="tick" x="547.2" y="761" text-anchor="middle" transform="rotate(35 547.2 761)">2023-07</text>
<line class="grid" x1="632.2" y1="95" x2="632.2" y2="725"/>
<text class="tick" x="632.2" y="761" text-anchor="middle" transform="rotate(35 632.2 761)">2023-10</text>
<line class="grid" x1="717.2" y1="95" x2="717.2" y2="725"/>
<text class="tick" x="717.2" y="761" text-anchor="middle" transform="rotate(35 717.2 761)">2024-01</text>
<line class="grid" x1="801.3" y1="95" x2="801.3" y2="725"/>
<text class="tick" x="801.3" y="761" text-anchor="middle" transform="rotate(35 801.3 761)">2024-04</text>
<line class="grid" x1="885.5" y1="95" x2="885.5" y2="725"/>
<text class="tick" x="885.5" y="761" text-anchor="middle" transform="rotate(35 885.5 761)">2024-07</text>
<line class="grid" x1="970.5" y1="95" x2="970.5" y2="725"/>
<text class="tick" x="970.5" y="761" text-anchor="middle" transform="rotate(35 970.5 761)">2024-10</text>
<line class="grid" x1="1055.5" y1="95" x2="1055.5" y2="725"/>
<text class="tick" x="1055.5" y="761" text-anchor="middle" transform="rotate(35 1055.5 761)">2025-01</text>
<line class="grid" x1="1138.7" y1="95" x2="1138.7" y2="725"/>
<text class="tick" x="1138.7" y="761" text-anchor="middle" transform="rotate(35 1138.7 761)">2025-04</text>
<line class="grid" x1="1222.8" y1="95" x2="1222.8" y2="725"/>
<text class="tick" x="1222.8" y="761" text-anchor="middle" transform="rotate(35 1222.8 761)">2025-07</text>
<line class="grid" x1="1307.8" y1="95" x2="1307.8" y2="725"/>
<text class="tick" x="1307.8" y="761" text-anchor="middle" transform="rotate(35 1307.8 761)">2025-10</text>
<line class="grid" x1="1392.9" y1="95" x2="1392.9" y2="725"/>
<text class="tick" x="1392.9" y="761" text-anchor="middle" transform="rotate(35 1392.9 761)">2026-01</text>
<line class="grid" x1="1476.1" y1="95" x2="1476.1" y2="725"/>
<text class="tick" x="1476.1" y="761" text-anchor="middle" transform="rotate(35 1476.1 761)">2026-04</text>
<line x1="110" y1="95" x2="110" y2="725" stroke="#202124" stroke-width="1.5"/>
<line x1="110" y1="725" x2="1550" y2="725" stroke="#202124" stroke-width="1.5"/>
<g transform="translate(110 95)">
<polyline points="0.0,621.0 0.9,565.4 1.8,605.6 2.8,597.4 3.7,608.0 4.6,600.9 5.5,580.1 6.5,568.1 7.4,599.8 8.3,593.4 9.2,583.4 10.2,573.8 11.1,600.4 12.0,604.3 12.9,586.0 13.9,603.8 14.8,606.9 15.7,617.2 16.6,594.4 17.6,593.8 18.5,601.1 19.4,606.7 20.3,616.8 21.3,613.7 22.2,613.8 23.1,614.9 24.0,610.3 25.0,613.7 25.9,618.6 26.8,618.8 27.7,604.7 28.7,599.2 29.6,596.6 30.5,611.8 31.4,578.2 32.3,616.7 33.3,617.2 34.2,609.6 35.1,619.3 36.0,592.7 37.0,600.9 37.9,577.3 38.8,616.2 39.7,615.0 40.7,595.4 41.6,617.6 42.5,614.3 43.4,623.5 44.4,620.4 45.3,592.8 46.2,570.4 47.1,600.6 48.1,610.7 49.0,604.9 49.9,593.9 50.8,606.2 51.8,623.0 52.7,621.5 53.6,607.8 54.5,605.8 55.5,622.5 56.4,604.7 57.3,621.5 58.2,597.2 59.2,595.7 60.1,622.6 61.0,585.2 61.9,614.5 62.8,609.5 63.8,594.5 64.7,611.4 65.6,582.5 66.5,598.6 67.5,612.2 68.4,616.7 69.3,623.2 70.2,607.6 71.2,620.2 72.1,603.5 73.0,619.1 73.9,605.5 74.9,616.1 75.8,598.3 76.7,605.6 77.6,613.2 78.6,607.8 79.5,614.0 80.4,622.1 81.3,619.5 82.3,621.8 83.2,618.1 84.1,600.9 85.0,610.4 86.0,614.5 86.9,618.6 87.8,613.5 88.7,617.0 89.7,620.8 90.6,625.2 91.5,621.1 92.4,608.4 93.4,606.7 94.3,594.3 95.2,591.3 96.1,608.2 97.0,609.2 98.0,623.1 98.9,625.1 99.8,621.4 100.7,625.9 101.7,614.0 102.6,625.3 103.5,602.3 104.4,617.0 105.4,617.4 106.3,628.0 107.2,624.9 108.1,625.3 109.1,622.1 110.0,612.2 110.9,613.7 111.8,601.9 112.8,606.7 113.7,601.5 114.6,624.1 115.5,611.2 116.5,614.9 117.4,621.6 118.3,624.6 119.2,625.3 120.2,606.1 121.1,611.1 122.0,609.0 122.9,615.4 123.9,613.6 124.8,608.4 125.7,615.4 126.6,617.3 127.5,615.5 128.5,619.8 129.4,611.1 130.3,623.2 131.2,622.9 132.2,617.5 133.1,624.2 134.0,609.8 134.9,608.2 135.9,624.8 136.8,623.2 137.7,611.3 138.6,623.4 139.6,617.7 140.5,625.5 141.4,619.3 142.3,613.2 143.3,615.3 144.2,622.0 145.1,624.0 146.0,605.4 147.0,613.6 147.9,618.4 148.8,620.6 149.7,566.6 150.7,622.7 151.6,624.1 152.5,624.2 153.4,621.8 154.4,614.0 155.3,617.6 156.2,616.4 157.1,621.3 158.0,611.6 159.0,619.8 159.9,608.7 160.8,617.0 161.7,612.1 162.7,616.7 163.6,624.7 164.5,623.4 165.4,619.1 166.4,592.7 167.3,622.0 168.2,619.3 169.1,611.6 170.1,612.1 171.0,622.2 171.9,618.4 172.8,624.8 173.8,623.5 174.7,622.6 175.6,619.2 176.5,613.5 177.5,619.0 178.4,618.5 179.3,618.1 180.2,618.7 181.2,621.9 182.1,623.1 183.0,617.1 183.9,609.6 184.9,614.3 185.8,621.7 186.7,617.7 187.6,610.1 188.5,614.9 189.5,610.5 190.4,620.3 191.3,618.5 192.2,603.5 193.2,583.5 194.1,586.9 195.0,605.4 195.9,607.9 196.9,618.4 197.8,615.3 198.7,610.0 199.6,581.6 200.6,592.5 201.5,606.4 202.4,612.7 203.3,611.3 204.3,579.6 205.2,621.7 206.1,614.6 207.0,623.7 208.0,582.9 208.9,604.4 209.8,625.7 210.7,616.0 211.7,625.8 212.6,599.9 213.5,607.4 214.4,618.7 215.4,623.7 216.3,609.1 217.2,610.5 218.1,625.6 219.1,621.4 220.0,619.1 220.9,612.3 221.8,621.6 222.7,617.9 223.7,610.3 224.6,601.0 225.5,624.4 226.4,589.6 227.4,619.7 228.3,606.1 229.2,629.3 230.1,627.4 231.1,617.4 232.0,629.2 232.9,628.9 233.8,607.3 234.8,628.4 235.7,628.1 236.6,627.0 237.5,628.4 238.5,627.2 239.4,623.2 240.3,626.3 241.2,619.6 242.2,627.7 243.1,618.6 244.0,624.7 244.9,604.7 245.9,624.1 246.8,622.2 247.7,622.2 248.6,626.3 249.6,624.9 250.5,624.6 251.4,627.4 252.3,618.9 253.2,623.2 254.2,627.2 255.1,594.1 256.0,610.3 256.9,627.0 257.9,617.0 258.8,627.9 259.7,610.3 260.6,621.7 261.6,624.9 262.5,623.5 263.4,599.1 264.3,628.8 265.3,614.0 266.2,605.2 267.1,594.9 268.0,618.7 269.0,599.3 269.9,605.7 270.8,612.4 271.7,625.4 272.7,611.4 273.6,627.1 274.5,609.9 275.4,624.0 276.4,627.4 277.3,625.0 278.2,628.1 279.1,626.7 280.1,628.1 281.0,628.3 281.9,606.5 282.8,627.6 283.7,627.0 284.7,626.5 285.6,628.4 286.5,615.7 287.4,612.4 288.4,628.9 289.3,625.5 290.2,628.1 291.1,620.6 292.1,588.3 293.0,576.0 293.9,623.9 294.8,624.0 295.8,626.7 296.7,623.8 297.6,618.6 298.5,627.2 299.5,626.4 300.4,608.1 301.3,609.8 302.2,625.1 303.2,625.4 304.1,624.5 305.0,623.3 305.9,617.0 306.9,557.4 307.8,620.4 308.7,628.6 309.6,627.9 310.6,615.3 311.5,623.8 312.4,608.4 313.3,615.7 314.2,619.4 315.2,621.3 316.1,612.8 317.0,627.5 317.9,611.4 318.9,620.4 319.8,625.1 320.7,615.6 321.6,627.0 322.6,606.5 323.5,625.1 324.4,620.8 325.3,621.1 326.3,612.4 327.2,619.6 328.1,617.2 329.0,601.6 330.0,617.7 330.9,626.5 331.8,572.1 332.7,613.5 333.7,627.3 334.6,627.2 335.5,619.1 336.4,602.3 337.4,607.4 338.3,614.6 339.2,611.8 340.1,604.7 341.1,626.9 342.0,615.9 342.9,623.9 343.8,597.6 344.7,610.8 345.7,619.1 346.6,625.3 347.5,622.7 348.4,618.3 349.4,622.5 350.3,627.1 351.2,622.4 352.1,621.0 353.1,626.5 354.0,623.2 354.9,626.0 355.8,609.6 356.8,627.3 357.7,625.3 358.6,626.4 359.5,624.4 360.5,626.4 361.4,626.7 362.3,625.1 363.2,626.4 364.2,622.8 365.1,627.2 366.0,625.3 366.9,622.4 367.9,626.0 368.8,615.2 369.7,622.8 370.6,626.2 371.6,610.4 372.5,625.9 373.4,624.9 374.3,623.0 375.3,625.5 376.2,620.5 377.1,625.5 378.0,599.5 378.9,625.3 379.9,625.5 380.8,604.4 381.7,623.1 382.6,608.8 383.6,609.0 384.5,617.6 385.4,614.8 386.3,615.2 387.3,606.9 388.2,610.7 389.1,625.1 390.0,616.2 391.0,623.7 391.9,594.6 392.8,603.0 393.7,614.5 394.7,605.5 395.6,615.5 396.5,595.8 397.4,599.9 398.4,618.0 399.3,624.4 400.2,602.8 401.1,621.1 402.1,619.2 403.0,612.4 403.9,604.6 404.8,625.4 405.8,604.1 406.7,592.1 407.6,619.4 408.5,627.8 409.4,618.5 410.4,603.9 411.3,624.5 412.2,599.6 413.1,617.1 414.1,605.4 415.0,618.0 415.9,609.7 416.8,600.5 417.8,612.4 418.7,620.4 419.6,624.1 420.5,601.6 421.5,615.8 422.4,600.4 423.3,614.0 424.2,620.3 425.2,625.1 426.1,619.5 427.0,603.9 427.9,618.3 428.9,620.5 429.8,606.9 430.7,608.8 431.6,625.4 432.6,619.8 433.5,622.2 434.4,619.6 435.3,619.4 436.3,624.1 437.2,624.1 438.1,613.3 439.0,614.7 439.9,618.3 440.9,614.8 441.8,608.3 442.7,612.6 443.6,618.8 444.6,627.2 445.5,620.8 446.4,613.2 447.3,615.1 448.3,606.5 449.2,614.7 450.1,620.1 451.0,620.7 452.0,622.9 452.9,616.6 453.8,601.3 454.7,614.8 455.7,617.3 456.6,621.5 457.5,621.1 458.4,617.7 459.4,605.4 460.3,598.7 461.2,618.0 462.1,622.8 463.1,623.2 464.0,619.5 464.9,610.9 465.8,613.5 466.8,608.6 467.7,615.8 468.6,617.7 469.5,601.9 470.4,607.1 471.4,622.3 472.3,617.8 473.2,607.9 474.1,616.9 475.1,620.2 476.0,621.8 476.9,620.3 477.8,619.6 478.8,591.2 479.7,617.0 480.6,588.8 481.5,619.1 482.5,606.3 483.4,624.5 484.3,618.7 485.2,615.1 486.2,614.9 487.1,611.1 488.0,603.4 488.9,618.4 489.9,603.5 490.8,616.8 491.7,620.0 492.6,597.8 493.6,622.0 494.5,618.7 495.4,623.0 496.3,621.2 497.3,614.0 498.2,620.9 499.1,610.9 500.0,612.2 500.9,616.5 501.9,623.6 502.8,616.7 503.7,615.1 504.6,621.5 505.6,618.9 506.5,621.3 507.4,620.4 508.3,619.0 509.3,605.5 510.2,606.0 511.1,602.2 512.0,604.8 513.0,596.6 513.9,614.4 514.8,618.8 515.7,622.5 516.7,612.9 517.6,604.3 518.5,618.8 519.4,617.1 520.4,609.5 521.3,609.4 522.2,610.6 523.1,621.0 524.1,616.8 525.0,617.9 525.9,615.1 526.8,614.9 527.8,621.6 528.7,628.2 529.6,623.6 530.5,621.5 531.5,614.0 532.4,618.3 533.3,620.6 534.2,622.7 535.1,619.4 536.1,611.8 537.0,619.3 537.9,614.7 538.8,612.0 539.8,621.2 540.7,619.8 541.6,614.8 542.5,611.7 543.5,613.3 544.4,612.7 545.3,623.7 546.2,623.1 547.2,605.8 548.1,611.2 549.0,617.5 549.9,610.1 550.9,615.8 551.8,607.9 552.7,606.1 553.6,602.3 554.6,617.9 555.5,614.6 556.4,619.9 557.3,616.9 558.3,622.6 559.2,581.6 560.1,595.5 561.0,622.2 562.0,616.3 562.9,597.5 563.8,608.6 564.7,617.3 565.6,610.5 566.6,611.7 567.5,622.5 568.4,621.5 569.3,611.0 570.3,621.1 571.2,621.9 572.1,616.7 573.0,600.6 574.0,621.2 574.9,614.2 575.8,598.0 576.7,623.7 577.7,609.2 578.6,612.7 579.5,607.8 580.4,604.1 581.4,612.4 582.3,608.5 583.2,602.4 584.1,612.0 585.1,612.3 586.0,624.7 586.9,614.1 587.8,620.2 588.8,624.0 589.7,622.3 590.6,589.0 591.5,619.6 592.5,610.2 593.4,612.2 594.3,626.7 595.2,618.8 596.1,602.9 597.1,612.4 598.0,608.9 598.9,619.0 599.8,611.1 600.8,609.5 601.7,595.9 602.6,614.9 603.5,616.0 604.5,578.6 605.4,593.2 606.3,577.6 607.2,585.0 608.2,578.5 609.1,616.2 610.0,616.6 610.9,614.9 611.9,598.6 612.8,606.0 613.7,606.6 614.6,620.6 615.6,618.8 616.5,618.5 617.4,619.5 618.3,595.6 619.3,620.9 620.2,621.5 621.1,612.9 622.0,597.8 623.0,607.2 623.9,622.6 624.8,622.4 625.7,617.6 626.6,607.1 627.6,571.6 628.5,599.9 629.4,624.9 630.3,617.2 631.3,625.1 632.2,618.5 633.1,611.9 634.0,608.1 635.0,599.1 635.9,619.6 636.8,608.6 637.7,615.6 638.7,626.2 639.6,623.1 640.5,622.0 641.4,587.1 642.4,616.8 643.3,606.2 644.2,617.5 645.1,616.0 646.1,618.9 647.0,619.6 647.9,616.8 648.8,594.6 649.8,612.4 650.7,610.2 651.6,623.4 652.5,610.5 653.5,612.5 654.4,608.0 655.3,612.4 656.2,612.0 657.2,615.4 658.1,606.2 659.0,608.0 659.9,613.0 660.8,616.8 661.8,619.5 662.7,618.2 663.6,623.8 664.5,620.2 665.5,621.4 666.4,614.7 667.3,603.3 668.2,612.5 669.2,605.6 670.1,615.1 671.0,608.6 671.9,609.1 672.9,606.3 673.8,618.6 674.7,592.2 675.6,609.7 676.6,614.8 677.5,597.2 678.4,612.0 679.3,610.1 680.3,616.7 681.2,601.7 682.1,581.2 683.0,597.3 684.0,590.9 684.9,614.6 685.8,616.1 686.7,612.2 687.7,596.4 688.6,581.5 689.5,602.9 690.4,599.2 691.3,618.9 692.3,621.5 693.2,618.1 694.1,609.6 695.0,600.3 696.0,592.0 696.9,617.0 697.8,608.0 698.7,606.3 699.7,608.7 700.6,587.0 701.5,607.5 702.4,613.4 703.4,622.1 704.3,618.5 705.2,616.0 706.1,616.2 707.1,605.9 708.0,594.0 708.9,603.8 709.8,622.7 710.8,612.5 711.7,610.7 712.6,619.0 713.5,609.9 714.5,609.5 715.4,592.5 716.3,614.6 717.2,619.5 718.2,613.4 719.1,612.4 720.0,616.6 720.9,601.4 721.8,611.6 722.8,612.9 723.7,615.4 724.6,621.4 725.5,583.3 726.5,608.3 727.4,604.3 728.3,610.4 729.2,606.4 730.2,589.8 731.1,610.6 732.0,612.8 732.9,611.7 733.9,597.8 734.8,611.2 735.7,598.0 736.6,589.7 737.6,602.4 738.5,606.3 739.4,604.6 740.3,610.5 741.3,612.2 742.2,585.7 743.1,617.2 744.0,606.3 745.0,611.3 745.9,594.4 746.8,609.0 747.7,580.6 748.7,600.3 749.6,615.5 750.5,608.6 751.4,605.4 752.3,608.3 753.3,591.1 754.2,616.6 755.1,613.9 756.0,615.6 757.0,611.6 757.9,591.8 758.8,613.4 759.7,578.3 760.7,609.3 761.6,622.5 762.5,618.5 763.4,614.8 764.4,602.7 765.3,598.5 766.2,605.5 767.1,589.8 768.1,615.9 769.0,607.0 769.9,609.7 770.8,614.9 771.8,594.4 772.7,610.3 773.6,601.3 774.5,612.2 775.5,601.0 776.4,608.1 777.3,606.9 778.2,604.4 779.2,598.9 780.1,595.4 781.0,611.7 781.9,585.4 782.8,607.9 783.8,591.7 784.7,594.9 785.6,601.4 786.5,606.5 787.5,610.2 788.4,610.5 789.3,608.9 790.2,605.6 791.2,607.6 792.1,614.4 793.0,613.9 793.9,604.6 794.9,614.8 795.8,616.6 796.7,603.5 797.6,607.0 798.6,617.2 799.5,609.8 800.4,613.7 801.3,616.8 802.3,608.0 803.2,581.2 804.1,606.4 805.0,610.2 806.0,600.7 806.9,616.9 807.8,597.5 808.7,612.5 809.7,603.0 810.6,607.1 811.5,604.2 812.4,609.9 813.4,581.2 814.3,615.5 815.2,600.1 816.1,601.9 817.0,600.9 818.0,596.0 818.9,604.1 819.8,608.2 820.7,604.1 821.7,605.4 822.6,581.8 823.5,610.0 824.4,613.2 825.4,612.2 826.3,613.1 827.2,556.9 828.1,568.3 829.1,613.0 830.0,583.8 830.9,608.6 831.8,594.9 832.8,605.6 833.7,597.3 834.6,601.5 835.5,584.4 836.5,577.9 837.4,596.9 838.3,590.2 839.2,612.5 840.2,608.5 841.1,597.1 842.0,600.6 842.9,582.1 843.9,612.2 844.8,595.6 845.7,607.3 846.6,598.4 847.5,608.0 848.5,597.4 849.4,601.7 850.3,584.0 851.2,603.5 852.2,598.1 853.1,607.9 854.0,586.6 854.9,599.1 855.9,579.4 856.8,604.3 857.7,594.3 858.6,609.8 859.6,592.3 860.5,609.2 861.4,601.1 862.3,586.7 863.3,605.4 864.2,604.3 865.1,585.6 866.0,589.0 867.0,610.9 867.9,602.5 868.8,596.5 869.7,582.2 870.7,610.0 871.6,609.1 872.5,620.6 873.4,597.4 874.4,578.6 875.3,596.5 876.2,581.4 877.1,582.7 878.0,600.2 879.0,579.1 879.9,606.7 880.8,594.4 881.7,595.9 882.7,595.3 883.6,583.5 884.5,590.3 885.4,583.1 886.4,601.8 887.3,600.0 888.2,594.6 889.1,607.3 890.1,585.7 891.0,595.3 891.9,615.6 892.8,600.0 893.8,604.8 894.7,586.4 895.6,593.0 896.5,591.2 897.5,588.5 898.4,579.5 899.3,583.8 900.2,584.2 901.2,607.9 902.1,606.4 903.0,595.8 903.9,571.2 904.9,607.6 905.8,586.9 906.7,586.0 907.6,596.4 908.5,588.9 909.5,625.5 910.4,582.2 911.3,588.8 912.2,590.5 913.2,607.2 914.1,552.6 915.0,614.2 915.9,620.3 916.9,596.7 917.8,602.2 918.7,599.9 919.6,607.0 920.6,603.8 921.5,601.6 922.4,607.2 923.3,597.3 924.3,611.7 925.2,623.3 926.1,627.3 927.0,600.3 928.0,565.8 928.9,581.3 929.8,610.3 930.7,613.6 931.7,593.7 932.6,592.9 933.5,593.4 934.4,588.2 935.4,580.7 936.3,602.5 937.2,599.5 938.1,583.7 939.1,569.0 940.0,608.6 940.9,622.3 941.8,627.8 942.7,622.3 943.7,613.9 944.6,591.8 945.5,591.0 946.4,591.8 947.4,582.4 948.3,605.5 949.2,591.0 950.1,594.0 951.1,615.5 952.0,597.6 952.9,612.2 953.8,598.1 954.8,595.2 955.7,578.3 956.6,587.1 957.5,586.5 958.5,586.8 959.4,589.4 960.3,601.3 961.2,589.0 962.2,581.6 963.1,592.0 964.0,579.9 964.9,596.8 965.9,598.2 966.8,588.8 967.7,599.5 968.6,590.5 969.6,586.9 970.5,588.7 971.4,597.4 972.3,587.4 973.2,577.7 974.2,576.6 975.1,588.8 976.0,593.1 976.9,597.7 977.9,577.9 978.8,576.5 979.7,589.3 980.6,590.0 981.6,567.2 982.5,585.4 983.4,571.8 984.3,592.5 985.3,594.9 986.2,597.1 987.1,610.9 988.0,595.3 989.0,588.5 989.9,589.4 990.8,581.5 991.7,561.1 992.7,578.7 993.6,593.5 994.5,579.3 995.4,587.6 996.4,557.9 997.3,592.0 998.2,587.1 999.1,590.0 1000.1,578.5 1001.0,594.8 1001.9,593.4 1002.8,600.3 1003.7,585.6 1004.7,590.1 1005.6,556.2 1006.5,579.7 1007.4,595.5 1008.4,584.0 1009.3,590.3 1010.2,588.3 1011.1,592.3 1012.1,598.9 1013.0,572.1 1013.9,602.7 1014.8,582.1 1015.8,590.2 1016.7,588.0 1017.6,587.2 1018.5,578.8 1019.5,585.3 1020.4,591.9 1021.3,587.4 1022.2,593.4 1023.2,583.9 1024.1,581.5 1025.0,589.6 1025.9,592.7 1026.9,593.8 1027.8,599.1 1028.7,617.3 1029.6,605.4 1030.6,602.4 1031.5,595.8 1032.4,591.3 1033.3,569.8 1034.2,610.2 1035.2,597.2 1036.1,586.0 1037.0,583.4 1037.9,607.3 1038.9,596.1 1039.8,602.1 1040.7,597.9 1041.6,588.5 1042.6,595.3 1043.5,597.3 1044.4,588.8 1045.3,603.0 1046.3,630.0 1047.2,595.3 1048.1,600.8 1049.0,584.9 1050.0,559.9 1050.9,598.1 1051.8,583.9 1052.7,596.1 1053.7,591.9 1054.6,598.4 1055.5,582.3 1056.4,594.1 1057.4,589.5 1058.3,585.1 1059.2,586.3 1060.1,593.0 1061.1,587.1 1062.0,558.5 1062.9,622.5 1063.8,621.2 1064.7,620.5 1065.7,594.5 1066.6,593.6 1067.5,605.2 1068.4,588.5 1069.4,594.0 1070.3,585.3 1071.2,565.3 1072.1,581.3 1073.1,593.5 1074.0,594.9 1074.9,600.6 1075.8,582.7 1076.8,548.0 1077.7,580.2 1078.6,548.4 1079.5,556.1 1080.5,597.8 1081.4,599.3 1082.3,607.4 1083.2,600.5 1084.2,588.6 1085.1,533.6 1086.0,599.9 1086.9,593.3 1087.9,600.2 1088.8,581.3 1089.7,549.8 1090.6,577.3 1091.6,590.1 1092.5,533.8 1093.4,572.2 1094.3,597.4 1095.3,607.9 1096.2,606.1 1097.1,591.3 1098.0,589.8 1098.9,576.4 1099.9,563.2 1100.8,601.9 1101.7,594.1 1102.6,588.4 1103.6,574.9 1104.5,596.5 1105.4,586.9 1106.3,601.6 1107.3,600.9 1108.2,601.2 1109.1,572.8 1110.0,587.2 1111.0,560.9 1111.9,593.3 1112.8,598.4 1113.7,604.7 1114.7,578.4 1115.6,545.0 1116.5,572.1 1117.4,585.3 1118.4,594.9 1119.3,588.3 1120.2,538.5 1121.1,565.2 1122.1,568.4 1123.0,555.5 1123.9,600.8 1124.8,559.1 1125.8,542.9 1126.7,582.6 1127.6,594.0 1128.5,578.5 1129.4,562.3 1130.4,584.1 1131.3,543.3 1132.2,600.9 1133.1,608.5 1134.1,587.0 1135.0,595.3 1135.9,587.1 1136.8,571.8 1137.8,551.2 1138.7,600.8 1139.6,565.7 1140.5,581.2 1141.5,597.1 1142.4,585.1 1143.3,582.7 1144.2,541.5 1145.2,590.4 1146.1,601.0 1147.0,569.6 1147.9,588.4 1148.9,603.3 1149.8,577.6 1150.7,591.3 1151.6,588.2 1152.6,597.7 1153.5,583.7 1154.4,577.7 1155.3,588.1 1156.3,575.6 1157.2,560.1 1158.1,527.1 1159.0,540.4 1159.9,493.1 1160.9,587.9 1161.8,588.0 1162.7,585.3 1163.6,584.8 1164.6,587.2 1165.5,538.6 1166.4,448.5 1167.3,526.5 1168.3,442.0 1169.2,551.5 1170.1,558.6 1171.0,501.1 1172.0,482.6 1172.9,547.3 1173.8,547.0 1174.7,516.6 1175.7,469.7 1176.6,530.1 1177.5,546.1 1178.4,451.7 1179.4,576.1 1180.3,563.1 1181.2,531.0 1182.1,543.5 1183.1,575.4 1184.0,523.9 1184.9,550.5 1185.8,534.0 1186.8,550.5 1187.7,456.0 1188.6,543.4 1189.5,513.7 1190.4,522.6 1191.4,497.2 1192.3,516.1 1193.2,497.1 1194.1,529.4 1195.1,461.1 1196.0,555.0 1196.9,532.4 1197.8,538.1 1198.8,532.0 1199.7,470.0 1200.6,541.1 1201.5,429.8 1202.5,529.5 1203.4,502.9 1204.3,521.3 1205.2,531.7 1206.2,473.8 1207.1,548.5 1208.0,511.4 1208.9,560.5 1209.9,579.7 1210.8,520.1 1211.7,492.4 1212.6,541.7 1213.6,546.1 1214.5,537.1 1215.4,560.7 1216.3,548.9 1217.3,451.0 1218.2,508.0 1219.1,498.4 1220.0,535.3 1220.9,515.2 1221.9,549.2 1222.8,570.1 1223.7,540.0 1224.6,415.2 1225.6,526.2 1226.5,544.9 1227.4,548.0 1228.3,520.9 1229.3,528.1 1230.2,462.8 1231.1,456.7 1232.0,481.4 1233.0,371.9 1233.9,466.1 1234.8,478.3 1235.7,427.8 1236.7,432.0 1237.6,442.9 1238.5,400.1 1239.4,419.7 1240.4,414.7 1241.3,465.8 1242.2,468.3 1243.1,283.7 1244.1,483.6 1245.0,483.5 1245.9,466.2 1246.8,452.8 1247.8,473.1 1248.7,300.1 1249.6,510.8 1250.5,487.1 1251.5,432.7 1252.4,321.2 1253.3,511.1 1254.2,488.9 1255.1,526.0 1256.1,500.9 1257.0,546.5 1257.9,526.2 1258.8,255.4 1259.8,424.2 1260.7,512.0 1261.6,559.9 1262.5,561.0 1263.5,490.4 1264.4,462.9 1265.3,349.5 1266.2,399.9 1267.2,474.4 1268.1,469.9 1269.0,482.4 1269.9,466.2 1270.9,463.5 1271.8,530.2 1272.7,528.9 1273.6,533.6 1274.6,269.7 1275.5,437.7 1276.4,479.9 1277.3,523.5 1278.3,294.7 1279.2,559.1 1280.1,519.3 1281.0,491.5 1282.0,436.7 1282.9,447.3 1283.8,504.8 1284.7,506.4 1285.6,483.7 1286.6,398.9 1287.5,499.2 1288.4,489.3 1289.3,500.0 1290.3,432.6 1291.2,470.7 1292.1,477.2 1293.0,488.1 1294.0,405.7 1294.9,483.0 1295.8,447.9 1296.7,438.1 1297.7,421.9 1298.6,425.1 1299.5,493.7 1300.4,330.4 1301.4,449.3 1302.3,480.2 1303.2,475.0 1304.1,404.2 1305.1,469.5 1306.0,456.3 1306.9,470.8 1307.8,472.8 1308.8,553.3 1309.7,500.7 1310.6,518.8 1311.5,430.0 1312.5,480.1 1313.4,318.5 1314.3,473.2 1315.2,451.4 1316.1,430.0 1317.1,260.3 1318.0,471.7 1318.9,450.9 1319.8,494.9 1320.8,482.2 1321.7,447.5 1322.6,471.0 1323.5,541.1 1324.5,457.2 1325.4,504.0 1326.3,347.8 1327.2,488.0 1328.2,488.5 1329.1,457.1 1330.0,531.6 1330.9,433.5 1331.9,497.8 1332.8,499.2 1333.7,475.3 1334.6,350.4 1335.6,434.1 1336.5,505.9 1337.4,504.8 1338.3,470.0 1339.3,456.9 1340.2,439.2 1341.1,443.8 1342.0,437.4 1343.0,336.5 1343.9,458.3 1344.8,435.4 1345.7,460.8 1346.6,483.5 1347.6,487.0 1348.5,501.4 1349.4,354.9 1350.3,456.2 1351.3,425.0 1352.2,470.3 1353.1,438.1 1354.0,447.3 1355.0,466.8 1355.9,460.4 1356.8,460.0 1357.7,473.0 1358.7,260.9 1359.6,427.7 1360.5,439.6 1361.4,463.0 1362.4,421.7 1363.3,295.1 1364.2,328.6 1365.1,414.8 1366.1,304.9 1367.0,411.8 1367.9,365.4 1368.8,446.7 1369.8,470.0 1370.7,460.9 1371.6,469.6 1372.5,434.8 1373.5,457.7 1374.4,482.1 1375.3,517.9 1376.2,569.9 1377.2,440.4 1378.1,455.0 1379.0,344.2 1379.9,401.6 1380.8,437.1 1381.8,443.8 1382.7,473.6 1383.6,435.0 1384.5,479.9 1385.5,439.1 1386.4,473.8 1387.3,458.9 1388.2,384.7 1389.2,498.2 1390.1,541.1 1391.0,467.9 1391.9,445.4 1392.9,462.2 1393.8,384.1 1394.7,365.6 1395.6,459.6 1396.6,474.5 1397.5,448.3 1398.4,504.7 1399.3,424.3 1400.3,482.2 1401.2,584.3 1402.1,517.3 1403.0,563.0 1404.0,422.7 1404.9,258.6 1405.8,345.3 1406.7,419.7 1407.7,348.8 1408.6,417.3 1409.5,411.4 1410.4,428.9 1411.3,430.2 1412.3,432.2 1413.2,452.7 1414.1,386.8 1415.0,344.2 1416.0,464.3 1416.9,441.4 1417.8,423.8 1418.7,445.1 1419.7,373.1 1420.6,426.3 1421.5,427.7 1422.4,424.4 1423.4,388.5 1424.3,422.5 1425.2,412.3 1426.1,407.0 1427.1,403.8 1428.0,425.5 1428.9,447.2 1429.8,520.8 1430.8,504.6 1431.7,460.5 1432.6,430.1 1433.5,453.5 1434.5,432.7 1435.4,379.0 1436.3,443.7 1437.2,455.2 1438.2,424.0 1439.1,500.7 1440.0,549.8" fill="none" stroke="#4C78A8" stroke-width="1.2" opacity="0.35"/>
<polyline points="0.0,621.0 0.9,593.2 1.8,597.3 2.8,597.3 3.7,599.5 4.6,599.7 5.5,596.9 6.5,589.3 7.4,594.2 8.3,592.5 9.2,590.5 10.2,585.6 11.1,585.6 12.0,589.0 12.9,591.6 13.9,592.2 14.8,594.1 15.7,598.9 16.6,601.8 17.6,600.9 18.5,600.4 19.4,603.4 20.3,605.3 21.3,606.2 22.2,605.8 23.1,608.7 24.0,611.0 25.0,612.8 25.9,614.5 26.8,614.8 27.7,613.5 28.7,611.4 29.6,608.8 30.5,609.0 31.4,604.0 32.3,603.7 33.3,603.5 34.2,604.2 35.1,607.1 36.0,606.5 37.0,605.0 37.9,604.8 38.8,604.8 39.7,604.5 40.7,602.4 41.6,602.2 42.5,605.3 43.4,608.5 44.4,614.6 45.3,611.3 46.2,604.9 47.1,605.7 48.1,604.7 49.0,603.3 49.9,599.1 50.8,597.1 51.8,601.4 52.7,608.7 53.6,609.7 54.5,609.0 55.5,611.5 56.4,613.1 57.3,615.3 58.2,611.6 59.2,607.9 60.1,610.0 61.0,607.1 61.9,605.9 62.8,606.6 63.8,602.7 64.7,604.8 65.6,602.9 66.5,599.5 67.5,603.3 68.4,603.7 69.3,605.6 70.2,607.5 71.2,608.7 72.1,611.7 73.0,614.7 73.9,613.7 74.9,613.6 75.8,610.0 76.7,609.7 77.6,608.7 78.6,609.4 79.5,608.6 80.4,611.0 81.3,611.5 82.3,614.9 83.2,616.6 84.1,614.9 85.0,615.3 86.0,615.3 86.9,614.8 87.8,614.0 88.7,613.3 89.7,613.7 90.6,617.1 91.5,618.7 92.4,617.8 93.4,616.1 94.3,613.4 95.2,609.7 96.1,607.9 97.0,605.6 98.0,605.9 98.9,608.3 99.8,610.4 100.7,614.9 101.7,618.1 102.6,620.6 103.5,619.6 104.4,618.7 105.4,617.6 106.3,618.6 107.2,618.4 108.1,620.0 109.1,619.6 110.0,621.0 110.9,620.5 111.8,618.3 112.8,615.2 113.7,611.9 114.6,611.7 115.5,610.2 116.5,610.6 117.4,611.7 118.3,614.9 119.2,617.6 120.2,618.3 121.1,616.4 122.0,616.1 122.9,616.2 123.9,615.0 124.8,612.7 125.7,611.3 126.6,612.9 127.5,613.5 128.5,615.1 129.4,614.5 130.3,615.8 131.2,617.9 132.2,618.2 133.1,619.2 134.0,618.4 134.9,616.7 135.9,618.7 136.8,618.7 137.7,617.0 138.6,617.9 139.6,616.9 140.5,619.2 141.4,620.7 142.3,619.1 143.3,618.0 144.2,619.5 145.1,619.6 146.0,617.8 147.0,616.1 147.9,616.0 148.8,617.0 149.7,610.1 150.7,610.2 151.6,610.2 152.5,612.9 153.4,614.1 154.4,613.4 155.3,613.0 156.2,620.1 157.1,619.9 158.0,618.1 159.0,617.5 159.9,615.6 160.8,616.1 161.7,615.3 162.7,615.3 163.6,615.8 164.5,617.5 165.4,617.4 166.4,615.1 167.3,615.8 168.2,616.8 169.1,616.1 170.1,614.3 171.0,614.1 171.9,614.0 172.8,618.6 173.8,618.8 174.7,619.3 175.6,620.4 176.5,620.6 177.5,620.2 178.4,620.2 179.3,619.2 180.2,618.5 181.2,618.4 182.1,619.0 183.0,619.5 183.9,618.2 184.9,617.6 185.8,618.1 186.7,617.9 187.6,616.2 188.5,615.1 189.5,614.1 190.4,615.6 191.3,616.2 192.2,613.6 193.2,608.7 194.1,605.4 195.0,604.1 195.9,603.7 196.9,603.4 197.8,603.0 198.7,603.9 199.6,603.6 200.6,604.4 201.5,604.6 202.4,605.3 203.3,604.3 204.3,599.2 205.2,600.8 206.1,605.6 207.0,610.0 208.0,606.6 208.9,605.5 209.8,607.5 210.7,612.7 211.7,613.3 212.6,611.2 213.5,608.9 214.4,614.0 215.4,616.7 216.3,614.4 217.2,613.6 218.1,613.6 219.1,616.6 220.0,618.3 220.9,617.4 221.8,617.1 222.7,618.3 223.7,618.3 224.6,614.8 225.5,615.2 226.4,611.0 227.4,612.1 228.3,609.9 229.2,611.5 230.1,613.9 231.1,616.3 232.0,617.0 232.9,622.6 233.8,620.8 234.8,624.0 235.7,623.8 236.6,623.8 237.5,625.3 238.5,625.0 239.4,624.2 240.3,626.9 241.2,625.7 242.2,625.6 243.1,624.4 244.0,623.9 244.9,620.7 245.9,620.8 246.8,620.2 247.7,620.6 248.6,620.4 249.6,621.3 250.5,621.3 251.4,624.5 252.3,623.8 253.2,623.9 254.2,624.6 255.1,620.0 256.0,617.9 256.9,618.3 257.9,616.8 258.8,618.1 259.7,616.2 260.6,615.5 261.6,619.9 262.5,621.7 263.4,617.8 264.3,619.4 265.3,617.5 266.2,616.7 267.1,612.9 268.0,612.0 269.0,608.5 269.9,609.5 270.8,607.2 271.7,608.8 272.7,609.7 273.6,614.3 274.5,613.0 275.4,616.6 276.4,619.7 277.3,621.5 278.2,621.8 279.1,624.0 280.1,624.2 281.0,626.8 281.9,624.3 282.8,624.3 283.7,624.6 284.7,624.4 285.6,624.6 286.5,622.9 287.4,620.6 288.4,623.8 289.3,623.5 290.2,623.7 291.1,622.8 292.1,617.1 293.0,611.4 293.9,613.0 294.8,612.3 295.8,612.5 296.7,611.9 297.6,611.6 298.5,617.2 299.5,624.4 300.4,622.1 301.3,620.1 302.2,619.8 303.2,620.1 304.1,620.9 305.0,620.4 305.9,619.0 306.9,611.8 307.8,613.3 308.7,613.8 309.6,614.2 310.6,612.8 311.5,612.9 312.4,611.7 313.3,620.0 314.2,619.9 315.2,618.8 316.1,616.7 317.0,618.4 317.9,616.6 318.9,618.3 319.8,619.7 320.7,619.2 321.6,620.0 322.6,619.1 323.5,618.7 324.4,620.1 325.3,620.2 326.3,618.3 327.2,618.9 328.1,617.5 329.0,616.8 330.0,615.8 330.9,616.6 331.8,609.6 332.7,609.8 333.7,610.9 334.6,612.3 335.5,614.8 336.4,612.6 337.4,609.8 338.3,615.9 339.2,615.7 340.1,612.4 341.1,612.4 342.0,611.9 342.9,615.0 343.8,613.6 344.7,613.1 345.7,614.1 346.6,617.1 347.5,616.5 348.4,616.8 349.4,616.6 350.3,620.8 351.2,622.5 352.1,622.8 353.1,622.9 354.0,623.0 354.9,624.1 355.8,622.3 356.8,622.3 357.7,622.7 358.6,623.5 359.5,623.2 360.5,623.6 361.4,623.7 362.3,625.9 363.2,625.8 364.2,625.4 365.1,625.6 366.0,625.7 366.9,625.1 367.9,625.0 368.8,623.6 369.7,623.1 370.6,623.6 371.6,621.2 372.5,621.2 373.4,621.6 374.3,621.2 375.3,622.7 376.2,622.3 377.1,622.2 378.0,620.7 378.9,620.6 379.9,620.7 380.8,618.0 381.7,617.7 382.6,616.0 383.6,613.7 384.5,616.2 385.4,614.7 386.3,613.3 387.3,613.6 388.2,611.9 389.1,614.2 390.0,615.2 391.0,616.1 391.9,613.2 392.8,611.4 393.7,612.5 394.7,611.8 395.6,610.4 396.5,607.5 397.4,604.1 398.4,607.4 399.3,610.5 400.2,608.8 401.1,611.1 402.1,611.6 403.0,614.0 403.9,614.6 404.8,615.7 405.8,612.8 406.7,611.3 407.6,611.0 408.5,612.3 409.4,613.1 410.4,613.0 411.3,612.9 412.2,612.3 413.1,615.8 414.1,613.8 415.0,612.4 415.9,611.2 416.8,610.7 417.8,609.0 418.7,611.9 419.6,612.9 420.5,612.4 421.5,612.1 422.4,610.7 423.3,612.7 424.2,613.8 425.2,614.5 426.1,613.8 427.0,614.1 427.9,614.5 428.9,617.4 429.8,616.4 430.7,614.7 431.6,614.8 432.6,614.8 433.5,617.4 434.4,617.6 435.3,617.4 436.3,619.9 437.2,622.1 438.1,620.4 439.0,619.6 439.9,619.1 440.9,618.4 441.8,616.8 442.7,615.2 443.6,614.4 444.6,616.4 445.5,617.3 446.4,616.5 447.3,616.6 448.3,616.3 449.2,616.6 450.1,616.8 451.0,615.9 452.0,616.2 452.9,616.6 453.8,614.7 454.7,615.9 455.7,616.2 456.6,616.4 457.5,616.5 458.4,615.8 459.4,614.2 460.3,613.8 461.2,614.2 462.1,615.0 463.1,615.3 464.0,615.0 464.9,614.1 465.8,615.2 466.8,616.6 467.7,616.3 468.6,615.6 469.5,612.5 470.4,610.8 471.4,612.4 472.3,613.0 473.2,612.9 474.1,613.1 475.1,613.4 476.0,616.3 476.9,618.2 477.8,617.8 478.8,614.0 479.7,615.3 480.6,611.3 481.5,611.1 482.5,608.9 483.4,609.5 484.3,609.4 485.2,612.8 486.2,612.5 487.1,615.7 488.0,613.4 488.9,615.2 489.9,612.1 490.8,611.9 491.7,612.6 492.6,610.1 493.6,611.7 494.5,613.9 495.4,614.5 496.3,617.0 497.3,616.7 498.2,616.8 499.1,618.7 500.0,617.3 500.9,617.0 501.9,617.0 502.8,616.4 503.7,616.6 504.6,616.7 505.6,617.8 506.5,619.1 507.4,619.7 508.3,619.0 509.3,617.4 510.2,616.1 511.1,613.3 512.0,611.3 513.0,607.8 513.9,606.9 514.8,606.9 515.7,609.3 516.7,610.3 517.6,610.6 518.5,612.6 519.4,615.5 520.4,614.8 521.3,613.5 522.2,611.8 523.1,612.9 524.1,614.7 525.0,614.6 525.9,614.3 526.8,615.1 527.8,616.8 528.7,619.3 529.6,619.7 530.5,620.4 531.5,619.8 532.4,620.3 533.3,621.1 534.2,621.3 535.1,620.0 536.1,618.4 537.0,618.0 537.9,618.1 538.8,617.2 539.8,617.3 540.7,616.9 541.6,616.2 542.5,616.2 543.5,615.4 544.4,615.1 545.3,616.7 546.2,617.0 547.2,615.0 548.1,614.5 549.0,615.3 549.9,614.9 550.9,615.3 551.8,613.1 552.7,610.6 553.6,610.1 554.6,611.1 555.5,610.7 556.4,612.1 557.3,612.2 558.3,614.3 559.2,610.8 560.1,609.9 561.0,610.5 562.0,610.7 562.9,607.5 563.8,606.3 564.7,605.6 565.6,609.7 566.6,612.0 567.5,612.1 568.4,612.8 569.3,614.7 570.3,616.5 571.2,617.2 572.1,618.1 573.0,616.5 574.0,616.3 574.9,615.3 575.8,613.4 576.7,613.8 577.7,612.0 578.6,611.4 579.5,612.4 580.4,610.0 581.4,609.7 582.3,611.2 583.2,608.2 584.1,608.6 585.1,608.5 586.0,610.9 586.9,612.4 587.8,613.5 588.8,615.7 589.7,618.5 590.6,615.2 591.5,616.3 592.5,614.2 593.4,614.0 594.3,614.9 595.2,614.1 596.1,611.4 597.1,614.7 598.0,613.2 598.9,614.4 599.8,614.3 600.8,611.8 601.7,608.5 602.6,610.2 603.5,610.7 604.5,606.4 605.4,602.7 606.3,598.0 607.2,594.5 608.2,592.0 609.1,592.2 610.0,592.2 610.9,597.4 611.9,598.2 612.8,602.3 613.7,605.3 614.6,611.4 615.6,611.7 616.5,612.0 617.4,612.7 618.3,612.2 619.3,614.4 620.2,616.5 621.1,615.4 622.0,612.4 623.0,610.8 623.9,611.2 624.8,615.0 625.7,614.6 626.6,612.5 627.6,606.6 628.5,606.9 629.4,609.4 630.3,608.7 631.3,609.1 632.2,609.2 633.1,609.9 634.0,615.1 635.0,615.0 635.9,614.2 636.8,613.0 637.7,611.6 638.7,612.7 639.6,614.3 640.5,616.3 641.4,614.6 642.4,614.2 643.3,613.9 644.2,614.1 645.1,612.7 646.1,612.1 647.0,611.7 647.9,616.0 648.8,612.8 649.8,613.7 650.7,612.7 651.6,613.7 652.5,612.5 653.5,611.5 654.4,610.2 655.3,612.8 656.2,612.7 657.2,613.5 658.1,611.0 659.0,610.6 659.9,610.7 660.8,612.0 661.8,613.0 662.7,613.9 663.6,615.1 664.5,617.1 665.5,619.0 666.4,619.2 667.3,617.3 668.2,616.3 669.2,614.5 670.1,613.3 671.0,611.6 671.9,609.9 672.9,608.7 673.8,610.8 674.7,607.9 675.6,608.5 676.6,608.5 677.5,606.8 678.4,607.3 679.3,607.8 680.3,607.5 681.2,608.9 682.1,604.8 683.0,602.3 684.0,601.4 684.9,601.8 685.8,602.6 686.7,602.0 687.7,601.2 688.6,601.3 689.5,602.1 690.4,603.3 691.3,603.9 692.3,604.7 693.2,605.5 694.1,607.4 695.0,610.1 696.0,608.5 696.9,611.1 697.8,609.5 698.7,607.3 699.7,606.0 700.6,602.8 701.5,603.8 702.4,606.8 703.4,607.6 704.3,609.1 705.2,610.5 706.1,611.5 707.1,614.2 708.0,612.3 708.9,611.0 709.8,611.0 710.8,610.2 711.7,609.4 712.6,609.8 713.5,610.4 714.5,612.6 715.4,611.0 716.3,609.8 717.2,610.8 718.2,611.2 719.1,610.3 720.0,611.2 720.9,610.1 721.8,612.8 722.8,612.5 723.7,612.0 724.6,613.1 725.5,608.9 726.5,607.7 727.4,608.2 728.3,608.0 729.2,607.1 730.2,603.4 731.1,601.9 732.0,606.1 732.9,606.6 733.9,605.6 734.8,605.7 735.7,604.5 736.6,604.5 737.6,603.4 738.5,602.4 739.4,601.4 740.3,603.2 741.3,603.4 742.2,601.6 743.1,605.6 744.0,606.1 745.0,606.8 745.9,605.4 746.8,605.2 747.7,600.6 748.7,602.7 749.6,602.5 750.5,602.8 751.4,602.0 752.3,604.0 753.3,601.4 754.2,606.5 755.1,608.5 756.0,608.5 757.0,608.9 757.9,607.0 758.8,607.7 759.7,605.9 760.7,604.8 761.6,606.1 762.5,606.5 763.4,607.0 764.4,608.5 765.3,606.4 766.2,610.3 767.1,607.5 768.1,606.5 769.0,604.9 769.9,604.2 770.8,605.9 771.8,605.3 772.7,606.0 773.6,607.6 774.5,607.1 775.5,606.2 776.4,606.0 777.3,604.9 778.2,606.3 779.2,604.7 780.1,603.8 781.0,603.8 781.9,601.5 782.8,601.5 783.8,599.4 784.7,598.0 785.6,598.4 786.5,599.9 787.5,599.7 788.4,603.3 789.3,603.4 790.2,605.4 791.2,607.2 792.1,609.1 793.0,610.1 793.9,609.4 794.9,610.0 795.8,611.1 796.7,610.8 797.6,610.7 798.6,611.1 799.5,610.5 800.4,611.8 801.3,612.1 802.3,610.9 803.2,607.7 804.1,607.6 805.0,606.6 806.0,605.3 806.9,605.7 807.8,603.0 808.7,603.6 809.7,606.7 810.6,606.8 811.5,606.0 812.4,607.3 813.4,602.2 814.3,604.8 815.2,603.0 816.1,602.8 817.0,602.0 818.0,600.8 818.9,600.0 819.8,603.8 820.7,602.2 821.7,602.9 822.6,600.1 823.5,601.4 824.4,603.8 825.4,605.0 826.3,605.7 827.2,598.9 828.1,593.6 829.1,598.1 830.0,594.3 830.9,593.7 831.8,591.2 832.8,590.2 833.7,595.9 834.6,600.7 835.5,596.6 836.5,595.8 837.4,594.1 838.3,593.4 839.2,594.4 840.2,596.0 841.1,595.4 842.0,597.7 842.9,598.3 843.9,600.5 844.8,601.2 845.7,600.5 846.6,599.1 847.5,600.6 848.5,600.2 849.4,603.0 850.3,598.9 851.2,600.0 852.2,598.7 853.1,600.1 854.0,597.0 854.9,597.3 855.9,594.1 856.8,597.0 857.7,595.7 858.6,597.3 859.6,595.1 860.5,598.3 861.4,598.6 862.3,599.7 863.3,599.8 864.2,601.3 865.1,597.8 866.0,597.3 867.0,597.6 867.9,597.8 868.8,599.2 869.7,595.9 870.7,596.7 871.6,600.0 872.5,604.5 873.4,602.6 874.4,599.2 875.3,599.2 876.2,599.1 877.1,595.2 878.0,593.9 879.0,588.0 879.9,589.3 880.8,591.6 881.7,591.5 882.7,593.5 883.6,593.6 884.5,592.2 885.4,592.7 886.4,592.0 887.3,592.8 888.2,592.7 889.1,594.4 890.1,594.7 891.0,595.4 891.9,600.0 892.8,599.8 893.8,600.5 894.7,599.3 895.6,597.3 896.5,598.0 897.5,597.1 898.4,591.9 899.3,589.6 900.2,586.7 901.2,589.7 902.1,591.6 903.0,592.3 903.9,589.8 904.9,593.9 905.8,594.3 906.7,594.6 907.6,592.9 908.5,590.4 909.5,594.6 910.4,596.2 911.3,593.5 912.2,594.0 913.2,597.1 914.1,590.8 915.0,594.4 915.9,593.7 916.9,595.8 917.8,597.7 918.7,599.0 919.6,599.0 920.6,606.3 921.5,604.5 922.4,602.6 923.3,602.7 924.3,604.1 925.2,607.4 926.1,610.3 927.0,609.8 928.0,604.7 928.9,601.0 929.8,602.9 930.7,603.1 931.7,598.9 932.6,594.0 933.5,593.0 934.4,596.2 935.4,596.1 936.3,595.0 937.2,593.0 938.1,591.6 939.1,588.2 940.0,590.3 940.9,595.2 941.8,601.9 942.7,604.8 943.7,606.8 944.6,608.0 945.5,611.1 946.4,608.7 947.4,603.0 948.3,599.8 949.2,595.3 950.1,592.5 951.1,595.9 952.0,596.8 952.9,599.8 953.8,602.0 954.8,600.5 955.7,598.7 956.6,597.7 957.5,593.6 958.5,592.0 959.4,588.8 960.3,589.2 961.2,588.3 962.2,588.8 963.1,589.5 964.0,588.6 964.9,590.0 965.9,591.3 966.8,589.5 967.7,591.0 968.6,592.2 969.6,591.5 970.5,592.8 971.4,592.8 972.3,591.3 973.2,589.7 974.2,586.4 975.1,586.2 976.0,587.1 976.9,588.4 977.9,585.6 978.8,584.0 979.7,585.7 980.6,587.6 981.6,584.5 982.5,583.4 983.4,579.7 984.3,581.8 985.3,584.4 986.2,585.5 987.1,588.5 988.0,592.6 989.0,593.0 989.9,595.5 990.8,593.9 991.7,589.1 992.7,586.5 993.6,584.0 994.5,581.7 995.4,581.6 996.4,577.1 997.3,578.6 998.2,582.3 999.1,583.9 1000.1,581.8 1001.0,584.0 1001.9,584.8 1002.8,590.9 1003.7,590.0 1004.7,590.4 1005.6,585.6 1006.5,585.7 1007.4,585.8 1008.4,584.5 1009.3,583.1 1010.2,583.4 1011.1,583.8 1012.1,589.9 1013.0,588.8 1013.9,589.8 1014.8,589.5 1015.8,589.5 1016.7,589.5 1017.6,588.8 1018.5,585.9 1019.5,587.8 1020.4,586.2 1021.3,587.0 1022.2,587.4 1023.2,586.8 1024.1,586.0 1025.0,587.6 1025.9,588.6 1026.9,588.9 1027.8,590.6 1028.7,594.0 1029.6,597.1 1030.6,600.0 1031.5,600.9 1032.4,600.7 1033.3,597.3 1034.2,598.9 1035.2,596.0 1036.1,593.2 1037.0,590.5 1037.9,592.2 1038.9,592.9 1039.8,597.5 1040.7,595.7 1041.6,594.5 1042.6,595.8 1043.5,597.8 1044.4,595.2 1045.3,596.1 1046.3,600.1 1047.2,599.7 1048.1,601.5 1049.0,600.0 1050.0,594.7 1050.9,596.0 1051.8,593.3 1052.7,588.4 1053.7,588.0 1054.6,587.6 1055.5,587.2 1056.4,592.1 1057.4,590.9 1058.3,591.1 1059.2,589.7 1060.1,589.8 1061.1,588.2 1062.0,584.8 1062.9,588.9 1063.8,593.4 1064.7,598.4 1065.7,599.6 1066.6,599.7 1067.5,602.3 1068.4,606.6 1069.4,602.5 1070.3,597.4 1071.2,589.5 1072.1,587.6 1073.1,587.6 1074.0,586.1 1074.9,587.8 1075.8,586.2 1076.8,580.9 1077.7,583.0 1078.6,578.3 1079.5,573.0 1080.5,573.4 1081.4,573.2 1082.3,576.8 1083.2,584.3 1084.2,585.5 1085.1,583.3 1086.0,589.6 1086.9,589.0 1087.9,589.1 1088.8,585.3 1089.7,578.1 1090.6,576.5 1091.6,584.5 1092.5,575.1 1093.4,572.1 1094.3,571.7 1095.3,575.5 1096.2,583.6 1097.1,585.6 1098.0,585.5 1098.9,591.6 1099.9,590.3 1100.8,590.9 1101.7,589.0 1102.6,586.4 1103.6,584.1 1104.5,585.1 1105.4,586.6 1106.3,592.1 1107.3,591.9 1108.2,592.9 1109.1,590.7 1110.0,592.5 1111.0,587.4 1111.9,588.3 1112.8,587.8 1113.7,588.4 1114.7,585.1 1115.6,581.1 1116.5,579.0 1117.4,582.5 1118.4,582.7 1119.3,581.2 1120.2,571.8 1121.1,569.9 1122.1,573.3 1123.0,570.9 1123.9,573.1 1124.8,568.0 1125.8,561.5 1126.7,567.8 1127.6,571.9 1128.5,573.3 1129.4,574.3 1130.4,571.9 1131.3,569.7 1132.2,577.9 1133.1,581.6 1134.1,580.7 1135.0,583.1 1135.9,586.6 1136.8,584.8 1137.8,586.0 1138.7,586.0 1139.6,579.8 1140.5,579.0 1141.5,579.3 1142.4,579.0 1143.3,580.6 1144.2,579.2 1145.2,577.7 1146.1,582.7 1147.0,581.1 1147.9,579.8 1148.9,582.4 1149.8,581.7 1150.7,588.8 1151.6,588.5 1152.6,588.0 1153.5,590.0 1154.4,588.5 1155.3,586.3 1156.3,586.1 1157.2,581.6 1158.1,572.9 1159.0,564.7 1159.9,551.7 1160.9,553.2 1161.8,553.2 1162.7,554.6 1163.6,558.1 1164.6,566.7 1165.5,566.4 1166.4,560.0 1167.3,551.3 1168.3,530.4 1169.2,525.6 1170.1,521.9 1171.0,509.6 1172.0,501.5 1172.9,515.7 1173.8,518.6 1174.7,529.3 1175.7,517.6 1176.6,513.5 1177.5,519.9 1178.4,515.5 1179.4,519.6 1180.3,521.9 1181.2,523.9 1182.1,534.5 1183.1,541.0 1184.0,537.8 1184.9,551.9 1185.8,545.9 1186.8,544.1 1187.7,533.4 1188.6,533.4 1189.5,524.6 1190.4,524.4 1191.4,516.8 1192.3,514.2 1193.2,506.6 1194.1,517.1 1195.1,505.3 1196.0,511.2 1196.9,512.6 1197.8,518.5 1198.8,520.7 1199.7,516.8 1200.6,518.5 1201.5,514.0 1202.5,510.4 1203.4,506.2 1204.3,503.8 1205.2,503.7 1206.2,504.3 1207.1,505.3 1208.0,517.0 1208.9,521.4 1209.9,532.4 1210.8,532.2 1211.7,526.6 1212.6,536.3 1213.6,536.0 1214.5,539.7 1215.4,539.7 1216.3,535.3 1217.3,525.4 1218.2,527.6 1219.1,521.5 1220.0,519.9 1220.9,516.8 1221.9,515.1 1222.8,518.2 1223.7,530.9 1224.6,517.6 1225.6,521.6 1226.5,523.0 1227.4,527.7 1228.3,523.6 1229.3,517.6 1230.2,506.6 1231.1,512.5 1232.0,506.1 1233.0,481.4 1233.9,469.7 1234.8,463.6 1235.7,449.3 1236.7,444.9 1237.6,442.9 1238.5,431.3 1239.4,438.1 1240.4,430.8 1241.3,429.0 1242.2,434.8 1243.1,413.6 1244.1,419.4 1245.0,431.3 1245.9,438.0 1246.8,443.4 1247.8,444.4 1248.7,420.4 1249.6,452.9 1250.5,453.4 1251.5,446.1 1252.4,425.4 1253.3,433.7 1254.2,436.0 1255.1,468.3 1256.1,466.9 1257.0,475.3 1257.9,488.7 1258.8,479.3 1259.8,466.9 1260.7,470.2 1261.6,475.0 1262.5,483.6 1263.5,475.6 1264.4,466.5 1265.3,480.0 1266.2,476.5 1267.2,471.1 1268.1,458.3 1269.0,447.0 1269.9,443.6 1270.9,443.7 1271.8,469.5 1272.7,487.9 1273.6,496.4 1274.6,467.8 1275.5,461.4 1276.4,463.4 1277.3,471.9 1278.3,438.3 1279.2,442.6 1280.1,440.6 1281.0,472.3 1282.0,472.1 1282.9,467.4 1283.8,464.8 1284.7,495.0 1285.6,484.2 1286.6,467.0 1287.5,468.2 1288.4,475.7 1289.3,483.2 1290.3,472.9 1291.2,467.8 1292.1,466.9 1293.0,479.6 1294.0,466.2 1294.9,465.3 1295.8,457.9 1296.7,458.7 1297.7,451.7 1298.6,444.3 1299.5,445.1 1300.4,434.3 1301.4,429.5 1302.3,434.1 1303.2,439.4 1304.1,436.8 1305.1,443.2 1306.0,437.8 1306.9,457.9 1307.8,461.3 1308.8,471.7 1309.7,475.4 1310.6,491.8 1311.5,486.1 1312.5,489.5 1313.4,467.8 1314.3,467.8 1315.2,453.2 1316.1,443.1 1317.1,406.2 1318.0,412.2 1318.9,408.0 1319.8,433.2 1320.8,434.5 1321.7,433.9 1322.6,439.8 1323.5,479.9 1324.5,477.8 1325.4,485.4 1326.3,464.4 1327.2,465.2 1328.2,471.1 1329.1,469.1 1330.0,467.8 1330.9,464.4 1331.9,463.5 1332.8,485.1 1333.7,483.3 1334.6,463.6 1335.6,460.3 1336.5,456.6 1337.4,466.8 1338.3,462.8 1339.3,456.8 1340.2,451.6 1341.1,464.9 1342.0,465.4 1343.0,441.2 1343.9,434.6 1344.8,429.6 1345.7,430.2 1346.6,436.5 1347.6,442.7 1348.5,451.9 1349.4,454.5 1350.3,454.2 1351.3,452.7 1352.2,454.0 1353.1,447.6 1354.0,441.9 1355.0,437.0 1355.9,452.0 1356.8,452.6 1357.7,459.4 1358.7,429.5 1359.6,428.0 1360.5,426.9 1361.4,426.4 1362.4,420.8 1363.3,397.3 1364.2,376.7 1365.1,398.6 1366.1,381.1 1367.0,377.1 1367.9,363.2 1368.8,366.8 1369.8,391.7 1370.7,410.6 1371.6,418.5 1372.5,437.0 1373.5,443.6 1374.4,460.3 1375.3,470.4 1376.2,484.7 1377.2,481.8 1378.1,479.7 1379.0,466.7 1379.9,458.7 1380.8,452.3 1381.8,441.7 1382.7,427.9 1383.6,427.2 1384.5,430.7 1385.5,444.3 1386.4,454.6 1387.3,457.7 1388.2,449.3 1389.2,452.8 1390.1,468.0 1391.0,466.2 1391.9,467.1 1392.9,465.5 1393.8,454.8 1394.7,452.1 1395.6,446.5 1396.6,437.0 1397.5,434.3 1398.4,442.7 1399.3,437.3 1400.3,451.3 1401.2,482.6 1402.1,490.8 1403.0,503.4 1404.0,499.8 1404.9,464.6 1405.8,453.4 1406.7,444.4 1407.7,410.8 1408.6,396.5 1409.5,374.9 1410.4,375.7 1411.3,400.2 1412.3,412.7 1413.2,417.4 1414.1,422.8 1415.0,412.3 1416.0,419.9 1416.9,421.7 1417.8,420.8 1418.7,422.6 1419.7,411.2 1420.6,416.9 1421.5,428.8 1422.4,423.1 1423.4,415.6 1424.3,415.4 1425.2,410.7 1426.1,415.5 1427.1,412.3 1428.0,412.0 1428.9,415.3 1429.8,434.2 1430.8,445.9 1431.7,452.8 1432.6,456.1 1433.5,463.2 1434.5,464.2 1435.4,454.5 1436.3,443.5 1437.2,436.4 1438.2,431.2 1439.1,441.3 1440.0,455.0" fill="none" stroke="#E45756" stroke-width="3.4"/>
</g>
<text x="1300" y="127" class="small"><tspan fill="#4C78A8">Daily total</tspan>  <tspan fill="#E45756">7-day average</tspan></text>
<text x="830.0" y="800" class="small" text-anchor="middle">Kyiv date</text>
<text x="30" y="410.0" class="small" text-anchor="middle" transform="rotate(-90 30 410.0)">Total active hours across locations</text>
</svg>