<?xml version="1.0" encoding="UTF-8"?>
<svg xmlns="http://www.w3.org/2000/svg" width="1600" height="820" viewBox="0 0 1600 820">
<style>
text{font-family:Segoe UI,Arial,sans-serif;fill:#202124}
.small{font-size:20px;fill:#4f5b66}
.tick{font-size:18px;fill:#5f6368}
.grid{stroke:#dfe3e8;stroke-width:1}
</style>
<rect width="100%" height="100%" fill="#ffffff"/>
<text x="110" y="45" font-size="30" font-weight="700">Daily alarm hours: м. Київ</text>
<text x="110" y="75" class="small">Clean intervals; one location, so values are hours per day.</text>
<line class="grid" x1="110" y1="725.0" x2="1550" y2="725.0"/>
<text class="tick" x="94" y="731.0" text-anchor="end">0</text>
<line class="grid" x1="110" y1="567.5" x2="1550" y2="567.5"/>
<text class="tick" x="94" y="573.5" text-anchor="end">6</text>
<line class="grid" x1="110" y1="410.0" x2="1550" y2="410.0"/>
<text class="tick" x="94" y="416.0" text-anchor="end">12</text>
<line class="grid" x1="110" y1="252.5" x2="1550" y2="252.5"/>
<text class="tick" x="94" y="258.5" text-anchor="end">18</text>
<line class="grid" x1="110" y1="95.0" x2="1550" y2="95.0"/>
<text class="tick" x="94" y="101.0" text-anchor="end">24</text>
<line class="grid" x1="125.7" y1="95" x2="125.7" y2="725"/>
<text class="tick" x="125.7" y="761" text-anchor="middle" transform="rotate(35 125.7 761)">2022-04</text>
<line class="grid" x1="209.8" y1="95" x2="209.8" y2="725"/>
<text class="tick" x="209.8" y="761" text-anchor="middle" transform="rotate(35 209.8 761)">2022-07</text>
<line class="grid" x1="294.9" y1="95" x2="294.9" y2="725"/>
<text class="tick" x="294.9" y="761" text-anchor="middle" transform="rotate(35 294.9 761)">2022-10</text>
<line class="grid" x1="379.9" y1="95" x2="379.9" y2="725"/>
<text class="tick" x="379.9" y="761" text-anchor="middle" transform="rotate(35 379.9 761)">2023-01</text>
<line class="grid" x1="463.1" y1="95" x2="463.1" y2="725"/>
<text class="tick" x="463.1" y="761" text-anchor="middle" transform="rotate(35 463.1 761)">2023-04</text>
<line class="grid" x1="547.2" y1="95" x2="547.2" y2="725"/>
<text class="tick" x="547.2" y="761" text-anchor="middle" transform="rotate(35 547.2 761)">2023-07</text>
<line class="grid" x1="632.2" y1="95" x2="632.2" y2="725"/>
<text class="tick" x="632.2" y="761" text-anchor="middle" transform="rotate(35 632.2 761)">2023-10</text>
<line class="grid" x1="717.2" y1="95" x2="717.2" y2="725"/>
<text class="tick" x="717.2" y="761" text-anchor="middle" transform="rotate(35 717.2 761)">2024-01</text>
<line class="grid" x1="801.3" y1="95" x2="801.3" y2="725"/>
<text class="tick" x="801.3" y="761" text-anchor="middle" transform="rotate(35 801.3 761)">2024-04</text>
<line class="grid" x1="885.5" y1="95" x2="885.5" y2="725"/>
<text class="tick" x="885.5" y="761" text-anchor="middle" transform="rotate(35 885.5 761)">2024-07</text>
<line class="grid" x1="970.5" y1="95" x2="970.5" y2="725"/>
<text class="tick" x="970.5" y="761" text-anchor="middle" transform="rotate(35 970.5 761)">2024-10</text>
<line class="grid" x1="1055.5" y1="95" x2="1055.5" y2="725"/>
<text class="tick" x="1055.5" y="761" text-anchor="middle" transform="rotate(35 1055.5 761)">2025-01</text>
<line class="grid" x1="1138.7" y1="95" x2="1138.7" y2="725"/>
<text class="tick" x="1138.7" y="761" text-anchor="middle" transform="rotate(35 1138.7 761)">2025-04</text>
<line class="grid" x1="1222.8" y1="95" x2="1222.8" y2="725"/>
<text class="tick" x="1222.8" y="761" text-anchor="middle" transform="rotate(35 1222.8 761)">2025-07</text>
<line class="grid" x1="1307.8" y1="95" x2="1307.8" y2="725"/>
<text class="tick" x="1307.8" y="761" text-anchor="middle" transform="rotate(35 1307.8 761)">2025-10</text>
<line class="grid" x1="1392.9" y1="95" x2="1392.9" y2="725"/>
<text class="tick" x="1392.9" y="761" text-anchor="middle" transform="rotate(35 1392.9 761)">2026-01</text>
<line class="grid" x1="1476.1" y1="95" x2="1476.1" y2="725"/>
<text class="tick" x="1476.1" y="761" text-anchor="middle" transform="rotate(35 1476.1 761)">2026-04</text>
<line x1="110" y1="95" x2="110" y2="725" stroke="#202124" stroke-width="1.5"/>
<line x1="110" y1="725" x2="1550" y2="725" stroke="#202124" stroke-width="1.5"/>
<g transform="translate(110 95)">
<polyline points="0.0,563.0 0.9,280.2 1.8,452.4 2.8,441.7 3.7,482.6 4.6,457.0 5.5,367.2 6.5,331.4 7.4,441.7 8.3,501.0 9.2,340.7 10.2,427.4 11.1,494.2 12.0,422.8 12.9,389.5 13.9,468.4 14.8,556.9 15.7,598.8 16.6,513.2 17.6,505.5 18.5,516.7 19.4,577.8 20.3,610.4 21.3,590.3 22.2,584.4 23.1,605.0 24.0,597.7 25.0,586.5 25.9,590.3 26.8,624.6 27.7,516.2 28.7,510.1 29.6,520.6 30.5,591.8 31.4,466.6 32.3,612.8 33.3,598.5 34.2,583.5 35.1,588.7 36.0,553.6 37.0,547.8 37.9,507.4 38.8,630.0 39.7,607.7 40.7,524.8 41.6,594.7 42.5,630.0 43.4,630.0 44.4,630.0 45.3,550.0 46.2,537.6 47.1,523.2 48.1,598.1 49.0,557.7 49.9,533.1 50.8,601.4 51.8,610.3 52.7,630.0 53.6,536.0 54.5,541.2 55.5,617.8 56.4,548.1 57.3,613.2 58.2,505.8 59.2,539.5 60.1,630.0 61.0,507.2 61.9,568.3 62.8,557.2 63.8,489.6 64.7,562.7 65.6,513.7 66.5,565.3 67.5,576.4 68.4,580.5 69.3,590.3 70.2,630.0 71.2,618.9 72.1,552.2 73.0,615.2 73.9,571.2 74.9,594.7 75.8,553.8 76.7,533.3 77.6,587.9 78.6,609.0 79.5,577.6 80.4,613.4 81.3,598.4 82.3,616.7 83.2,608.1 84.1,577.6 85.0,613.6 86.0,593.4 86.9,612.5 87.8,568.5 88.7,615.7 89.7,604.4 90.6,629.3 91.5,629.6 92.4,573.6 93.4,597.0 94.3,499.0 95.2,503.8 96.1,576.8 97.0,552.7 98.0,630.0 98.9,630.0 99.8,630.0 100.7,630.0 101.7,630.0 102.6,630.0 103.5,553.7 104.4,601.9 105.4,606.2 106.3,630.0 107.2,630.0 108.1,601.4 109.1,600.5 110.0,596.9 110.9,603.0 111.8,519.5 112.8,575.9 113.7,550.9 114.6,630.0 115.5,601.5 116.5,628.9 117.4,630.0 118.3,630.0 119.2,630.0 120.2,593.0 121.1,548.0 122.0,552.4 122.9,609.1 123.9,585.3 124.8,558.3 125.7,596.6 126.6,617.5 127.5,587.7 128.5,630.0 129.4,592.7 130.3,630.0 131.2,630.0 132.2,592.7 133.1,630.0 134.0,588.7 134.9,578.9 135.9,630.0 136.8,630.0 137.7,583.2 138.6,620.8 139.6,612.1 140.5,630.0 141.4,617.1 142.3,539.6 143.3,602.0 144.2,609.4 145.1,594.7 146.0,548.0 147.0,610.9 147.9,613.8 148.8,622.0 149.7,442.7 150.7,609.3 151.6,618.4 152.5,630.0 153.4,615.9 154.4,630.0 155.3,630.0 156.2,614.0 157.1,630.0 158.0,597.7 159.0,626.0 159.9,593.3 160.8,630.0 161.7,603.4 162.7,612.4 163.6,630.0 164.5,622.7 165.4,630.0 166.4,548.6 167.3,630.0 168.2,630.0 169.1,597.0 170.1,587.5 171.0,587.1 171.9,630.0 172.8,630.0 173.8,630.0 174.7,623.9 175.6,630.0 176.5,613.6 177.5,630.0 178.4,630.0 179.3,630.0 180.2,617.1 181.2,630.0 182.1,618.4 183.0,630.0 183.9,616.6 184.9,599.6 185.8,630.0 186.7,604.5 187.6,596.5 188.5,511.2 189.5,605.1 190.4,630.0 191.3,630.0 192.2,582.2 193.2,431.9 194.1,495.1 195.0,555.8 195.9,562.9 196.9,630.0 197.8,595.3 198.7,586.7 199.6,375.2 200.6,490.2 201.5,537.6 202.4,573.9 203.3,582.6 204.3,455.5 205.2,622.3 206.1,592.5 207.0,575.0 208.0,488.0 208.9,575.0 209.8,611.5 210.7,593.3 211.7,630.0 212.6,540.3 213.5,591.1 214.4,630.0 215.4,630.0 216.3,608.5 217.2,592.3 218.1,630.0 219.1,630.0 220.0,610.1 220.9,592.1 221.8,630.0 222.7,630.0 223.7,576.5 224.6,546.1 225.5,630.0 226.4,517.0 227.4,605.1 228.3,553.2 229.2,630.0 230.1,630.0 231.1,589.2 232.0,630.0 232.9,630.0 233.8,567.9 234.8,630.0 235.7,630.0 236.6,630.0 237.5,630.0 238.5,630.0 239.4,624.7 240.3,630.0 241.2,596.5 242.2,630.0 243.1,621.9 244.0,630.0 244.9,551.3 245.9,630.0 246.8,630.0 247.7,630.0 248.6,630.0 249.6,630.0 250.5,621.5 251.4,617.1 252.3,598.9 253.2,546.0 254.2,630.0 255.1,521.1 256.0,584.7 256.9,630.0 257.9,522.1 258.8,630.0 259.7,570.1 260.6,619.4 261.6,616.1 262.5,622.5 263.4,531.6 264.3,630.0 265.3,585.7 266.2,570.9 267.1,505.6 268.0,557.8 269.0,545.2 269.9,508.8 270.8,530.8 271.7,630.0 272.7,578.3 273.6,630.0 274.5,580.8 275.4,630.0 276.4,630.0 277.3,630.0 278.2,630.0 279.1,630.0 280.1,630.0 281.0,630.0 281.9,528.3 282.8,630.0 283.7,630.0 284.7,630.0 285.6,630.0 286.5,590.0 287.4,584.1 288.4,630.0 289.3,630.0 290.2,630.0 291.1,612.9 292.1,510.9 293.0,417.3 293.9,630.0 294.8,630.0 295.8,630.0 296.7,630.0 297.6,599.5 298.5,630.0 299.5,630.0 300.4,566.1 301.3,561.5 302.2,630.0 303.2,630.0 304.1,630.0 305.0,626.8 305.9,630.0 306.9,371.5 307.8,607.3 308.7,630.0 309.6,630.0 310.6,581.9 311.5,607.2 312.4,564.7 313.3,604.0 314.2,600.9 315.2,619.2 316.1,589.4 317.0,630.0 317.9,579.7 318.9,620.0 319.8,630.0 320.7,607.7 321.6,612.3 322.6,479.1 323.5,622.6 324.4,570.6 325.3,622.0 326.3,584.2 327.2,630.0 328.1,630.0 329.0,527.8 330.0,599.9 330.9,630.0 331.8,413.8 332.7,585.2 333.7,630.0 334.6,630.0 335.5,588.8 336.4,543.5 337.4,555.7 338.3,590.1 339.2,558.7 340.1,540.2 341.1,630.0 342.0,582.5 342.9,630.0 343.8,464.4 344.7,578.1 345.7,591.0 346.6,630.0 347.5,630.0 348.4,582.3 349.4,614.2 350.3,630.0 351.2,568.6 352.1,615.8 353.1,630.0 354.0,630.0 354.9,630.0 355.8,576.3 356.8,630.0 357.7,630.0 358.6,620.0 359.5,630.0 360.5,630.0 361.4,630.0 362.3,630.0 363.2,630.0 364.2,609.4 365.1,630.0 366.0,630.0 366.9,630.0 367.9,630.0 368.8,630.0 369.7,606.3 370.6,630.0 371.6,531.3 372.5,630.0 373.4,630.0 374.3,630.0 375.3,630.0 376.2,630.0 377.1,630.0 378.0,553.2 378.9,630.0 379.9,630.0 380.8,554.9 381.7,630.0 382.6,481.4 383.6,518.6 384.5,604.6 385.4,588.2 386.3,588.6 387.3,527.0 388.2,577.5 389.1,630.0 390.0,630.0 391.0,630.0 391.9,518.6 392.8,560.1 393.7,622.5 394.7,533.4 395.6,613.4 396.5,540.7 397.4,517.8 398.4,568.7 399.3,630.0 400.2,560.8 401.1,630.0 402.1,623.6 403.0,550.7 403.9,563.6 404.8,630.0 405.8,491.3 406.7,459.5 407.6,559.7 408.5,630.0 409.4,579.7 410.4,547.4 411.3,630.0 412.2,559.2 413.1,630.0 414.1,545.7 415.0,614.9 415.9,608.4 416.8,533.9 417.8,612.4 418.7,622.5 419.6,630.0 420.5,550.4 421.5,611.5 422.4,552.3 423.3,598.7 424.2,630.0 425.2,630.0 426.1,630.0 427.0,534.9 427.9,630.0 428.9,602.8 429.8,556.8 430.7,559.1 431.6,609.8 432.6,630.0 433.5,630.0 434.4,630.0 435.3,630.0 436.3,630.0 437.2,630.0 438.1,585.6 439.0,630.0 439.9,630.0 440.9,630.0 441.8,582.9 442.7,614.2 443.6,630.0 444.6,630.0 445.5,630.0 446.4,583.4 447.3,572.6 448.3,553.2 449.2,616.4 450.1,630.0 451.0,625.8 452.0,623.6 452.9,630.0 453.8,583.5 454.7,614.1 455.7,593.3 456.6,630.0 457.5,630.0 458.4,630.0 459.4,549.5 460.3,531.2 461.2,630.0 462.1,613.6 463.1,630.0 464.0,630.0 464.9,611.0 465.8,593.6 466.8,577.6 467.7,551.0 468.6,611.1 469.5,562.9 470.4,614.6 471.4,630.0 472.3,615.6 473.2,577.2 474.1,593.5 475.1,609.9 476.0,630.0 476.9,630.0 477.8,616.3 478.8,517.0 479.7,630.0 480.6,516.8 481.5,623.0 482.5,630.0 483.4,630.0 484.3,614.8 485.2,615.9 486.2,597.9 487.1,604.7 488.0,562.6 488.9,619.6 489.9,554.8 490.8,619.6 491.7,630.0 492.6,550.9 493.6,630.0 494.5,605.9 495.4,630.0 496.3,630.0 497.3,612.0 498.2,630.0 499.1,580.0 500.0,606.1 500.9,621.0 501.9,630.0 502.8,580.4 503.7,630.0 504.6,630.0 505.6,630.0 506.5,630.0 507.4,630.0 508.3,615.5 509.3,573.0 510.2,563.0 511.1,630.0 512.0,580.8 513.0,549.9 513.9,630.0 514.8,630.0 515.7,630.0 516.7,606.0 517.6,607.6 518.5,630.0 519.4,630.0 520.4,601.8 521.3,630.0 522.2,630.0 523.1,612.0 524.1,630.0 525.0,630.0 525.9,630.0 526.8,630.0 527.8,630.0 528.7,630.0 529.6,630.0 530.5,630.0 531.5,630.0 532.4,630.0 533.3,630.0 534.2,630.0 535.1,630.0 536.1,630.0 537.0,599.5 537.9,630.0 538.8,630.0 539.8,630.0 540.7,630.0 541.6,608.7 542.5,630.0 543.5,630.0 544.4,630.0 545.3,630.0 546.2,630.0 547.2,576.6 548.1,630.0 549.0,630.0 549.9,607.5 550.9,630.0 551.8,630.0 552.7,630.0 553.6,564.2 554.6,630.0 555.5,592.0 556.4,630.0 557.3,612.7 558.3,630.0 559.2,504.1 560.1,508.6 561.0,630.0 562.0,625.0 562.9,558.5 563.8,566.5 564.7,625.4 565.6,630.0 566.6,550.1 567.5,577.0 568.4,630.0 569.3,630.0 570.3,630.0 571.2,630.0 572.1,630.0 573.0,453.7 574.0,543.9 574.9,585.4 575.8,599.4 576.7,626.9 577.7,630.0 578.6,572.5 579.5,586.1 580.4,582.4 581.4,630.0 582.3,630.0 583.2,582.5 584.1,600.7 585.1,584.7 586.0,630.0 586.9,600.3 587.8,609.8 588.8,630.0 589.7,613.6 590.6,509.0 591.5,617.3 592.5,523.3 593.4,630.0 594.3,630.0 595.2,602.3 596.1,588.9 597.1,606.3 598.0,577.4 598.9,630.0 599.8,630.0 600.8,575.1 601.7,571.1 602.6,623.0 603.5,622.8 604.5,479.1 605.4,592.0 606.3,526.9 607.2,504.1 608.2,471.0 609.1,630.0 610.0,630.0 610.9,630.0 611.9,574.1 612.8,587.3 613.7,571.8 614.6,630.0 615.6,607.6 616.5,596.8 617.4,598.3 618.3,546.2 619.3,607.9 620.2,630.0 621.1,593.3 622.0,586.3 623.0,577.7 623.9,630.0 624.8,616.5 625.7,630.0 626.6,580.8 627.6,470.8 628.5,570.4 629.4,630.0 630.3,604.8 631.3,615.0 632.2,615.2 633.1,630.0 634.0,618.6 635.0,578.1 635.9,630.0 636.8,630.0 637.7,605.3 638.7,630.0 639.6,630.0 640.5,630.0 641.4,553.8 642.4,630.0 643.3,587.4 644.2,630.0 645.1,577.6 646.1,630.0 647.0,630.0 647.9,614.8 648.8,540.3 649.8,612.7 650.7,616.7 651.6,630.0 652.5,592.7 653.5,621.8 654.4,599.4 655.3,630.0 656.2,584.3 657.2,630.0 658.1,630.0 659.0,609.8 659.9,630.0 660.8,621.0 661.8,630.0 662.7,630.0 663.6,630.0 664.5,625.5 665.5,630.0 666.4,630.0 667.3,619.6 668.2,620.5 669.2,620.9 670.1,630.0 671.0,617.0 671.9,622.5 672.9,584.6 673.8,630.0 674.7,581.9 675.6,588.5 676.6,630.0 677.5,615.4 678.4,624.2 679.3,610.2 680.3,619.0 681.2,551.7 682.1,563.8 683.0,630.0 684.0,554.9 684.9,593.2 685.8,621.4 686.7,613.5 687.7,589.0 688.6,555.6 689.5,608.0 690.4,554.1 691.3,630.0 692.3,630.0 693.2,630.0 694.1,617.3 695.0,591.1 696.0,574.5 696.9,630.0 697.8,610.4 698.7,630.0 699.7,630.0 700.6,562.9 701.5,621.0 702.4,618.9 703.4,630.0 704.3,630.0 705.2,609.0 706.1,612.7 707.1,616.8 708.0,565.0 708.9,599.6 709.8,630.0 710.8,617.2 711.7,605.5 712.6,630.0 713.5,580.6 714.5,602.3 715.4,570.0 716.3,630.0 717.2,630.0 718.2,630.0 719.1,630.0 720.0,630.0 720.9,573.4 721.8,626.5 722.8,630.0 723.7,630.0 724.6,630.0 725.5,531.9 726.5,606.6 727.4,614.9 728.3,604.2 729.2,617.6 730.2,584.6 731.1,630.0 732.0,630.0 732.9,617.4 733.9,624.4 734.8,630.0 735.7,611.4 736.6,581.3 737.6,630.0 738.5,601.9 739.4,620.9 740.3,587.2 741.3,616.7 742.2,537.9 743.1,630.0 744.0,623.7 745.0,617.8 745.9,581.9 746.8,611.2 747.7,550.8 748.7,630.0 749.6,630.0 750.5,617.5 751.4,594.0 752.3,630.0 753.3,569.7 754.2,630.0 755.1,630.0 756.0,621.7 757.0,630.0 757.9,552.1 758.8,630.0 759.7,525.6 760.7,593.8 761.6,630.0 762.5,630.0 763.4,630.0 764.4,614.4 765.3,549.0 766.2,600.9 767.1,567.8 768.1,609.3 769.0,596.1 769.9,596.9 770.8,630.0 771.8,601.4 772.7,630.0 773.6,607.3 774.5,611.8 775.5,564.7 776.4,601.3 777.3,630.0 778.2,604.8 779.2,605.4 780.1,619.2 781.0,630.0 781.9,488.1 782.8,623.3 783.8,617.0 784.7,570.2 785.6,621.3 786.5,612.7 787.5,626.5 788.4,613.3 789.3,594.2 790.2,599.1 791.2,630.0 792.1,630.0 793.0,608.1 793.9,585.8 794.9,618.1 795.8,620.4 796.7,613.1 797.6,583.6 798.6,602.5 799.5,630.0 800.4,630.0 801.3,630.0 802.3,594.1 803.2,425.9 804.1,600.9 805.0,618.3 806.0,615.3 806.9,630.0 807.8,597.2 808.7,612.0 809.7,617.6 810.6,612.1 811.5,625.3 812.4,622.1 813.4,503.3 814.3,619.8 815.2,590.2 816.1,583.2 817.0,599.0 818.0,578.1 818.9,608.1 819.8,583.9 820.7,610.9 821.7,614.9 822.6,592.0 823.5,630.0 824.4,612.6 825.4,614.0 826.3,630.0 827.2,405.9 828.1,491.1 829.1,621.9 830.0,476.9 830.9,630.0 831.8,535.0 832.8,630.0 833.7,582.8 834.6,609.2 835.5,501.4 836.5,377.6 837.4,630.0 838.3,622.1 839.2,630.0 840.2,597.6 841.1,578.7 842.0,591.3 842.9,590.1 843.9,628.5 844.8,574.2 845.7,618.7 846.6,539.7 847.5,607.6 848.5,615.3 849.4,630.0 850.3,615.0 851.2,626.5 852.2,606.6 853.1,626.2 854.0,623.1 854.9,630.0 855.9,440.0 856.8,597.8 857.7,556.5 858.6,630.0 859.6,476.6 860.5,622.7 861.4,598.1 862.3,478.1 863.3,610.0 864.2,585.7 865.1,500.4 866.0,576.5 867.0,617.2 867.9,630.0 868.8,618.6 869.7,530.8 870.7,630.0 871.6,625.7 872.5,630.0 873.4,579.7 874.4,549.4 875.3,558.9 876.2,547.5 877.1,476.0 878.0,564.9 879.0,482.0 879.9,630.0 880.8,573.8 881.7,533.7 882.7,492.0 883.6,423.4 884.5,529.1 885.4,630.0 886.4,506.3 887.3,573.4 888.2,533.7 889.1,567.6 890.1,369.8 891.0,472.7 891.9,586.1 892.8,519.1 893.8,608.6 894.7,346.8 895.6,431.0 896.5,543.0 897.5,556.4 898.4,430.6 899.3,446.3 900.2,545.5 901.2,630.0 902.1,630.0 903.0,522.0 903.9,507.9 904.9,620.0 905.8,560.2 906.7,517.7 907.6,544.4 908.5,612.0 909.5,630.0 910.4,484.3 911.3,501.8 912.2,519.9 913.2,567.6 914.1,359.3 915.0,589.5 915.9,624.1 916.9,520.5 917.8,555.9 918.7,598.3 919.6,630.0 920.6,566.9 921.5,561.6 922.4,611.0 923.3,574.7 924.3,630.0 925.2,630.0 926.1,630.0 927.0,538.2 928.0,508.7 928.9,567.0 929.8,616.2 930.7,616.0 931.7,612.4 932.6,630.0 933.5,574.2 934.4,575.7 935.4,588.9 936.3,559.2 937.2,597.6 938.1,571.1 939.1,475.5 940.0,630.0 940.9,630.0 941.8,630.0 942.7,630.0 943.7,620.1 944.6,558.0 945.5,557.2 946.4,591.1 947.4,466.6 948.3,630.0 949.2,583.2 950.1,603.3 951.1,630.0 952.0,577.4 952.9,630.0 953.8,613.2 954.8,608.0 955.7,540.3 956.6,568.0 957.5,598.0 958.5,555.7 959.4,597.9 960.3,630.0 961.2,506.7 962.2,596.2 963.1,581.2 964.0,544.1 964.9,610.8 965.9,576.9 966.8,586.9 967.7,597.9 968.6,630.0 969.6,601.5 970.5,534.4 971.4,612.0 972.3,573.9 973.2,602.8 974.2,502.5 975.1,622.0 976.0,630.0 976.9,493.7 977.9,488.9 978.8,501.3 979.7,479.1 980.6,510.4 981.6,487.4 982.5,572.3 983.4,404.1 984.3,568.4 985.3,630.0 986.2,574.1 987.1,606.0 988.0,495.8 989.0,465.8 989.9,464.6 990.8,425.6 991.7,439.6 992.7,501.8 993.6,555.7 994.5,455.5 995.4,516.2 996.4,428.8 997.3,547.2 998.2,498.0 999.1,578.6 1000.1,506.9 1001.0,590.9 1001.9,575.6 1002.8,596.2 1003.7,558.5 1004.7,607.1 1005.6,465.5 1006.5,576.4 1007.4,592.9 1008.4,517.9 1009.3,581.9 1010.2,583.3 1011.1,551.8 1012.1,621.1 1013.0,591.6 1013.9,630.0 1014.8,564.8 1015.8,527.2 1016.7,569.5 1017.6,611.0 1018.5,513.8 1019.5,519.1 1020.4,580.9 1021.3,523.6 1022.2,630.0 1023.2,618.8 1024.1,623.1 1025.0,593.4 1025.9,573.7 1026.9,590.4 1027.8,530.3 1028.7,630.0 1029.6,630.0 1030.6,593.2 1031.5,595.1 1032.4,600.1 1033.3,496.8 1034.2,618.8 1035.2,630.0 1036.1,579.1 1037.0,544.7 1037.9,616.6 1038.9,555.3 1039.8,569.7 1040.7,576.9 1041.6,625.9 1042.6,566.6 1043.5,620.5 1044.4,555.9 1045.3,601.7 1046.3,630.0 1047.2,600.4 1048.1,612.0 1049.0,582.7 1050.0,473.8 1050.9,630.0 1051.8,611.1 1052.7,630.0 1053.7,611.0 1054.6,573.6 1055.5,591.5 1056.4,601.7 1057.4,616.5 1058.3,621.7 1059.2,603.7 1060.1,616.3 1061.1,610.2 1062.0,444.2 1062.9,630.0 1063.8,630.0 1064.7,630.0 1065.7,565.1 1066.6,630.0 1067.5,615.5 1068.4,616.9 1069.4,592.9 1070.3,578.4 1071.2,629.9 1072.1,396.2 1073.1,630.0 1074.0,630.0 1074.9,592.6 1075.8,604.9 1076.8,553.4 1077.7,488.8 1078.6,439.9 1079.5,471.3 1080.5,610.8 1081.4,594.1 1082.3,630.0 1083.2,630.0 1084.2,617.8 1085.1,349.5 1086.0,609.2 1086.9,592.8 1087.9,617.4 1088.8,620.8 1089.7,521.4 1090.6,613.5 1091.6,597.5 1092.5,471.4 1093.4,472.5 1094.3,624.5 1095.3,630.0 1096.2,630.0 1097.1,605.8 1098.0,539.5 1098.9,472.8 1099.9,455.6 1100.8,621.4 1101.7,584.0 1102.6,630.0 1103.6,585.9 1104.5,627.2 1105.4,504.5 1106.3,593.7 1107.3,630.0 1108.2,608.0 1109.1,487.4 1110.0,594.4 1111.0,501.3 1111.9,630.0 1112.8,622.0 1113.7,619.5 1114.7,468.9 1115.6,355.6 1116.5,533.0 1117.4,595.0 1118.4,600.0 1119.3,599.4 1120.2,496.0 1121.1,507.5 1122.1,581.3 1123.0,459.2 1123.9,625.1 1124.8,624.2 1125.8,592.3 1126.7,624.0 1127.6,630.0 1128.5,538.8 1129.4,558.4 1130.4,602.8 1131.3,446.0 1132.2,621.7 1133.1,630.0 1134.1,599.1 1135.0,623.6 1135.9,577.3 1136.8,584.2 1137.8,474.5 1138.7,616.3 1139.6,586.1 1140.5,505.8 1141.5,630.0 1142.4,599.5 1143.3,616.5 1144.2,574.8 1145.2,625.5 1146.1,629.7 1147.0,624.0 1147.9,588.9 1148.9,624.3 1149.8,630.0 1150.7,623.3 1151.6,599.4 1152.6,611.8 1153.5,597.6 1154.4,611.4 1155.3,622.2 1156.3,602.9 1157.2,623.0 1158.1,613.8 1159.0,581.9 1159.9,405.4 1160.9,621.9 1161.8,605.7 1162.7,630.0 1163.6,623.4 1164.6,630.0 1165.5,561.8 1166.4,397.1 1167.3,583.0 1168.3,412.9 1169.2,630.0 1170.1,619.9 1171.0,448.2 1172.0,508.5 1172.9,617.7 1173.8,601.9 1174.7,446.1 1175.7,391.9 1176.6,609.8 1177.5,596.3 1178.4,429.4 1179.4,621.8 1180.3,630.0 1181.2,612.0 1182.1,614.1 1183.1,630.0 1184.0,588.1 1184.9,622.4 1185.8,553.4 1186.8,584.2 1187.7,511.5 1188.6,630.0 1189.5,578.5 1190.4,630.0 1191.4,609.2 1192.3,630.0 1193.2,621.4 1194.1,622.4 1195.1,431.6 1196.0,621.3 1196.9,618.7 1197.8,586.2 1198.8,451.8 1199.7,536.8 1200.6,613.6 1201.5,475.0 1202.5,618.2 1203.4,553.5 1204.3,630.0 1205.2,597.5 1206.2,467.5 1207.1,630.0 1208.0,615.4 1208.9,613.3 1209.9,619.7 1210.8,619.4 1211.7,591.2 1212.6,630.0 1213.6,618.7 1214.5,630.0 1215.4,622.4 1216.3,591.9 1217.3,435.0 1218.2,596.8 1219.1,620.8 1220.0,609.7 1220.9,613.3 1221.9,622.6 1222.8,604.1 1223.7,630.0 1224.6,460.6 1225.6,630.0 1226.5,597.4 1227.4,604.7 1228.3,598.9 1229.3,622.3 1230.2,620.1 1231.1,583.1 1232.0,600.5 1233.0,489.8 1233.9,609.0 1234.8,613.4 1235.7,615.4 1236.7,630.0 1237.6,617.0 1238.5,476.6 1239.4,611.3 1240.4,618.8 1241.3,623.6 1242.2,623.0 1243.1,477.8 1244.1,620.6 1245.0,630.0 1245.9,630.0 1246.8,630.0 1247.8,618.5 1248.7,488.1 1249.6,630.0 1250.5,621.3 1251.5,563.3 1252.4,356.2 1253.3,617.3 1254.2,630.0 1255.1,630.0 1256.1,613.9 1257.0,630.0 1257.9,586.6 1258.8,411.1 1259.8,576.7 1260.7,630.0 1261.6,630.0 1262.5,624.9 1263.5,618.6 1264.4,630.0 1265.3,561.1 1266.2,630.0 1267.2,630.0 1268.1,596.6 1269.0,630.0 1269.9,630.0 1270.9,630.0 1271.8,630.0 1272.7,630.0 1273.6,630.0 1274.6,466.3 1275.5,630.0 1276.4,595.2 1277.3,619.6 1278.3,267.5 1279.2,630.0 1280.1,630.0 1281.0,630.0 1282.0,609.6 1282.9,630.0 1283.8,606.3 1284.7,623.3 1285.6,615.8 1286.6,519.8 1287.5,623.1 1288.4,630.0 1289.3,608.6 1290.3,475.1 1291.2,596.6 1292.1,590.5 1293.0,589.3 1294.0,465.3 1294.9,521.8 1295.8,566.8 1296.7,607.9 1297.7,564.5 1298.6,612.5 1299.5,604.3 1300.4,412.8 1301.4,630.0 1302.3,575.6 1303.2,624.5 1304.1,469.1 1305.1,630.0 1306.0,510.5 1306.9,616.4 1307.8,586.8 1308.8,630.0 1309.7,630.0 1310.6,630.0 1311.5,606.2 1312.5,630.0 1313.4,399.6 1314.3,630.0 1315.2,556.4 1316.1,572.8 1317.1,513.4 1318.0,596.0 1318.9,622.0 1319.8,621.8 1320.8,596.6 1321.7,524.9 1322.6,573.6 1323.5,630.0 1324.5,606.3 1325.4,612.5 1326.3,553.1 1327.2,615.4 1328.2,618.5 1329.1,630.0 1330.0,611.0 1330.9,524.8 1331.9,624.4 1332.8,630.0 1333.7,630.0 1334.6,517.8 1335.6,608.5 1336.5,621.2 1337.4,626.1 1338.3,606.9 1339.3,630.0 1340.2,630.0 1341.1,630.0 1342.0,595.2 1343.0,535.3 1343.9,630.0 1344.8,617.3 1345.7,630.0 1346.6,630.0 1347.6,620.4 1348.5,630.0 1349.4,502.6 1350.3,627.6 1351.3,557.3 1352.2,630.0 1353.1,569.5 1354.0,630.0 1355.0,630.0 1355.9,625.6 1356.8,580.2 1357.7,618.2 1358.7,396.3 1359.6,616.0 1360.5,630.0 1361.4,630.0 1362.4,617.6 1363.3,588.1 1364.2,546.6 1365.1,624.4 1366.1,618.6 1367.0,587.4 1367.9,560.2 1368.8,607.0 1369.8,630.0 1370.7,622.0 1371.6,630.0 1372.5,630.0 1373.5,616.1 1374.4,614.5 1375.3,615.4 1376.2,630.0 1377.2,619.0 1378.1,624.2 1379.0,566.7 1379.9,537.8 1380.8,613.4 1381.8,630.0 1382.7,630.0 1383.6,566.6 1384.5,619.7 1385.5,618.4 1386.4,630.0 1387.3,613.0 1388.2,554.1 1389.2,626.0 1390.1,630.0 1391.0,608.4 1391.9,616.8 1392.9,593.1 1393.8,630.0 1394.7,483.8 1395.6,610.2 1396.6,606.9 1397.5,574.5 1398.4,630.0 1399.3,586.0 1400.3,626.0 1401.2,630.0 1402.1,630.0 1403.0,630.0 1404.0,570.7 1404.9,535.5 1405.8,423.2 1406.7,547.6 1407.7,610.0 1408.6,568.6 1409.5,622.4 1410.4,572.7 1411.3,630.0 1412.3,620.9 1413.2,630.0 1414.1,523.2 1415.0,488.2 1416.0,622.7 1416.9,610.2 1417.8,586.6 1418.7,599.2 1419.7,564.6 1420.6,609.2 1421.5,619.7 1422.4,604.9 1423.4,488.1 1424.3,609.1 1425.2,620.4 1426.1,617.5 1427.1,625.3 1428.0,615.6 1428.9,596.8 1429.8,620.8 1430.8,630.0 1431.7,623.8 1432.6,621.8 1433.5,630.0 1434.5,624.1 1435.4,505.8 1436.3,630.0 1437.2,630.0 1438.2,535.4 1439.1,630.0 1440.0,630.0" fill="none" stroke="#4C78A8" stroke-width="1.2" opacity="0.35"/>
<polyline points="0.0,563.0 0.9,421.6 1.8,431.9 2.8,434.3 3.7,444.0 4.6,446.2 5.5,434.9 6.5,401.8 7.4,424.9 8.3,431.8 9.2,417.4 10.2,409.5 11.1,414.8 12.0,422.7 12.9,431.0 13.9,434.9 14.8,442.8 15.7,479.7 16.6,491.9 17.6,493.6 18.5,507.0 19.4,533.9 20.3,554.2 21.3,558.9 22.2,556.9 23.1,570.0 24.0,583.2 25.0,593.1 25.9,594.9 26.8,597.0 27.7,586.4 28.7,575.8 29.6,563.7 30.5,562.9 31.4,545.7 32.3,549.0 33.3,545.2 34.2,554.8 35.1,566.1 36.0,570.8 37.0,564.5 37.9,570.3 38.8,572.8 39.7,574.1 40.7,565.7 41.6,566.6 42.5,577.5 43.4,589.2 44.4,606.7 45.3,595.3 46.2,585.3 47.1,585.1 48.1,585.5 49.0,575.2 49.9,561.4 50.8,557.3 51.8,565.9 52.7,579.1 53.6,580.9 54.5,572.8 55.5,581.4 56.4,583.5 57.3,585.2 58.2,570.3 59.2,557.4 60.1,570.8 61.0,565.9 61.9,558.9 62.8,560.2 63.8,542.5 64.7,550.6 65.6,547.0 66.5,537.7 67.5,547.6 68.4,549.4 69.3,554.1 70.2,574.1 71.2,582.2 72.1,587.7 73.0,594.8 73.9,594.0 74.9,596.1 75.8,590.9 76.7,577.1 77.6,572.6 78.6,580.7 79.5,575.4 80.4,581.4 81.3,581.9 82.3,590.9 83.2,601.6 84.1,600.1 85.0,600.7 86.0,603.0 86.9,602.9 87.8,598.6 88.7,598.5 89.7,597.9 90.6,605.3 91.5,607.6 92.4,604.8 93.4,602.6 94.3,592.7 95.2,576.7 96.1,572.7 97.0,561.8 98.0,561.9 98.9,569.9 99.8,574.6 100.7,593.3 101.7,611.4 102.6,619.0 103.5,619.1 104.4,615.1 105.4,611.7 106.3,611.7 107.2,611.7 108.1,607.6 109.1,603.4 110.0,609.6 110.9,609.7 111.8,597.3 112.8,589.6 113.7,578.3 114.6,582.4 115.5,582.5 116.5,587.1 117.4,590.9 118.3,606.7 119.2,614.5 120.2,620.5 121.1,608.8 122.0,601.8 122.9,598.9 123.9,592.5 124.8,582.3 125.7,577.5 126.6,581.0 127.5,586.7 128.5,597.8 129.4,595.4 130.3,601.8 131.2,612.1 132.2,611.5 133.1,613.3 134.0,613.4 134.9,606.1 135.9,611.5 136.8,611.5 137.7,604.8 138.6,608.8 139.6,606.2 140.5,612.1 141.4,617.6 142.3,604.7 143.3,600.7 144.2,604.4 145.1,600.7 146.0,591.5 147.0,588.8 147.9,588.3 148.8,600.1 149.7,577.4 150.7,577.4 151.6,580.7 152.5,592.4 153.4,593.1 154.4,595.5 155.3,596.6 156.2,621.1 157.1,624.0 158.0,621.1 159.0,620.5 159.9,617.3 160.8,617.3 161.7,613.5 162.7,613.3 163.6,613.3 164.5,616.8 165.4,617.4 166.4,611.0 167.3,611.0 168.2,614.8 169.1,612.6 170.1,606.6 171.0,601.5 171.9,601.5 172.8,613.1 173.8,613.1 174.7,612.2 175.6,616.9 176.5,620.7 177.5,626.8 178.4,626.8 179.3,626.8 180.2,625.0 181.2,625.8 182.1,624.2 183.0,626.5 183.9,624.6 184.9,620.2 185.8,620.2 186.7,618.4 187.6,613.6 188.5,598.3 189.5,594.8 190.4,596.7 191.3,601.0 192.2,594.2 193.2,569.5 194.1,555.1 195.0,561.4 195.9,555.4 196.9,555.4 197.8,550.5 198.7,551.1 199.6,543.0 200.6,542.3 201.5,539.7 202.4,541.3 203.3,534.5 204.3,514.5 205.2,519.6 206.1,550.6 207.0,562.8 208.0,555.7 208.9,555.8 209.8,560.0 210.7,579.6 211.7,580.7 212.6,573.3 213.5,575.6 214.4,595.9 215.4,603.7 216.3,603.3 217.2,603.2 218.1,603.2 219.1,616.0 220.0,618.7 220.9,613.3 221.8,613.3 222.7,616.4 223.7,614.1 224.6,602.1 225.5,602.1 226.4,588.8 227.4,590.7 228.3,579.7 229.2,579.7 230.1,587.4 231.1,593.5 232.0,593.5 232.9,609.6 233.8,604.3 234.8,615.3 235.7,615.3 236.6,615.3 237.5,621.1 238.5,621.1 239.4,620.4 240.3,629.2 241.2,624.5 242.2,624.5 243.1,623.3 244.0,623.3 244.9,612.1 245.9,612.8 246.8,612.8 247.7,617.6 248.6,617.6 249.6,618.8 250.5,617.5 251.4,626.9 252.3,622.5 253.2,610.5 254.2,610.5 255.1,594.9 256.0,588.5 256.9,589.7 257.9,576.1 258.8,580.6 259.7,584.0 260.6,582.5 261.6,596.1 262.5,601.5 263.4,587.4 264.3,602.8 265.3,596.5 266.2,596.6 267.1,580.3 268.0,572.0 269.0,561.0 269.9,557.7 270.8,543.5 271.7,549.9 272.7,550.9 273.6,568.7 274.5,572.0 275.4,584.1 276.4,601.4 277.3,615.6 278.2,615.6 279.1,623.0 280.1,623.0 281.0,630.0 281.9,615.5 282.8,615.5 283.7,615.5 284.7,615.5 285.6,615.5 286.5,609.8 287.4,603.2 288.4,617.7 289.3,617.7 290.2,617.7 291.1,615.3 292.1,598.3 293.0,573.6 293.9,580.2 294.8,580.2 295.8,580.2 296.7,580.2 297.6,578.2 298.5,595.3 299.5,625.6 300.4,616.5 301.3,606.7 302.2,606.7 303.2,606.7 304.1,611.1 305.0,610.6 305.9,610.6 306.9,582.8 307.8,589.4 308.7,589.4 309.6,589.4 310.6,582.5 311.5,579.7 312.4,570.4 313.3,603.6 314.2,602.7 315.2,601.1 316.1,595.3 317.0,602.2 317.9,598.3 318.9,606.2 319.8,609.9 320.7,610.8 321.6,609.9 322.6,594.1 323.5,593.1 324.4,591.8 325.3,592.0 326.3,585.5 327.2,588.7 328.1,591.2 329.0,598.2 330.0,594.9 330.9,603.4 331.8,573.7 332.7,573.8 333.7,573.8 334.6,573.8 335.5,582.5 336.4,574.5 337.4,563.9 338.3,589.0 339.2,585.2 340.1,572.4 341.1,572.4 342.0,571.5 342.9,583.9 343.8,570.8 344.7,569.1 345.7,573.8 346.6,586.6 347.5,586.6 348.4,586.6 349.4,584.3 350.3,608.0 351.2,606.6 352.1,610.1 353.1,610.1 354.0,610.1 354.9,617.0 355.8,611.5 356.8,611.5 357.7,620.3 358.6,620.9 359.5,620.9 360.5,620.9 361.4,620.9 362.3,628.6 363.2,628.6 364.2,625.6 365.1,627.1 366.0,627.1 366.9,627.1 367.9,627.1 368.8,627.1 369.7,623.7 370.6,626.6 371.6,612.5 372.5,612.5 373.4,612.5 374.3,612.5 375.3,612.5 376.2,615.9 377.1,615.9 378.0,619.0 378.9,619.0 379.9,619.0 380.8,608.3 381.7,608.3 382.6,587.1 383.6,571.2 384.5,578.5 385.4,572.5 386.3,566.6 387.3,562.6 388.2,555.1 389.1,576.4 390.0,592.3 391.0,595.9 391.9,586.0 392.8,581.9 393.7,595.5 394.7,589.2 395.6,586.9 396.5,574.1 397.4,558.1 398.4,565.2 399.3,575.2 400.2,566.4 401.1,580.2 402.1,581.7 403.0,583.1 403.9,589.6 404.8,598.4 405.8,578.6 406.7,564.1 407.6,554.1 408.5,555.0 409.4,559.1 410.4,556.8 411.3,556.8 412.2,566.5 413.1,590.9 414.1,588.9 415.0,586.7 415.9,590.8 416.8,588.9 417.8,586.4 418.7,595.4 419.6,595.4 420.5,596.1 421.5,595.6 422.4,587.6 423.3,596.8 424.2,599.3 425.2,600.4 426.1,600.4 427.0,598.2 427.9,600.8 428.9,608.1 429.8,602.1 430.7,591.9 431.6,589.0 432.6,589.0 433.5,602.6 434.4,602.6 435.3,606.5 436.3,617.0 437.2,627.1 438.1,623.7 439.0,623.7 439.9,623.7 440.9,623.7 441.8,616.9 442.7,614.7 443.6,614.7 444.6,621.0 445.5,621.0 446.4,614.4 447.3,606.2 448.3,601.9 449.2,602.2 450.1,602.2 451.0,601.6 452.0,600.7 452.9,607.4 453.8,608.9 454.7,617.6 455.7,614.3 456.6,614.3 457.5,614.9 458.4,615.8 459.4,604.3 460.3,596.9 461.2,599.1 462.1,602.0 463.1,602.0 464.0,602.0 464.9,599.3 465.8,605.6 466.8,612.3 467.7,601.0 468.6,600.6 469.5,591.0 470.4,588.8 471.4,591.5 472.3,594.7 473.2,594.6 474.1,600.7 475.1,600.5 476.0,610.1 476.9,612.3 477.8,610.3 478.8,596.2 479.7,603.8 480.6,592.8 481.5,594.7 482.5,594.7 483.4,594.7 484.3,594.5 485.2,608.6 486.2,604.0 487.1,616.6 488.0,608.0 488.9,606.5 489.9,595.8 490.8,596.4 491.7,598.4 492.6,591.7 493.6,595.3 494.5,601.5 495.4,603.0 496.3,613.8 497.3,612.7 498.2,612.7 499.1,616.8 500.0,613.4 500.9,615.6 501.9,615.6 502.8,608.5 503.7,611.1 504.6,611.1 505.6,618.2 506.5,621.6 507.4,622.9 508.3,620.9 509.3,619.8 510.2,610.2 511.1,610.2 512.0,603.2 513.0,591.7 513.9,591.7 514.8,593.8 515.7,601.9 516.7,608.1 517.6,604.9 518.5,611.9 519.4,623.4 520.4,619.3 521.3,619.3 522.2,619.3 523.1,620.2 524.1,623.4 525.0,623.4 525.9,623.4 526.8,627.4 527.8,627.4 528.7,627.4 529.6,630.0 530.5,630.0 531.5,630.0 532.4,630.0 533.3,630.0 534.2,630.0 535.1,630.0 536.1,630.0 537.0,625.6 537.9,625.6 538.8,625.6 539.8,625.6 540.7,625.6 541.6,622.6 542.5,622.6 543.5,627.0 544.4,627.0 545.3,627.0 546.2,627.0 547.2,619.3 548.1,622.4 549.0,622.4 549.9,619.2 550.9,619.2 551.8,619.2 552.7,619.2 553.6,617.4 554.6,617.4 555.5,612.0 556.4,615.2 557.3,612.7 558.3,612.7 559.2,594.7 560.1,586.8 561.0,586.8 562.0,591.5 562.9,581.3 563.8,574.7 564.7,574.0 565.6,592.0 566.6,597.9 567.5,590.4 568.4,591.1 569.3,601.3 570.3,610.4 571.2,611.0 572.1,611.0 573.0,597.2 574.0,592.5 574.9,586.1 575.8,581.8 576.7,581.3 577.7,581.3 578.6,573.1 579.5,592.0 580.4,597.5 581.4,603.9 582.3,608.3 583.2,601.9 584.1,597.8 585.1,599.5 586.0,605.8 586.9,608.3 587.8,605.4 588.8,605.4 589.7,609.9 590.6,596.8 591.5,601.4 592.5,586.2 593.4,590.4 594.3,593.3 595.2,589.4 596.1,585.8 597.1,599.7 598.0,594.0 598.9,609.3 599.8,609.3 600.8,601.4 601.7,597.0 602.6,601.8 603.5,604.2 604.5,590.1 605.4,584.7 606.3,570.0 607.2,559.8 608.2,545.5 609.1,546.5 610.0,547.6 610.9,569.1 611.9,566.6 612.8,575.2 613.7,584.9 614.6,607.6 615.6,604.4 616.5,599.6 617.4,595.1 618.3,591.1 619.3,594.1 620.2,602.4 621.1,597.1 622.0,594.1 623.0,591.4 623.9,595.9 624.8,605.9 625.7,609.1 626.6,602.1 627.6,584.6 628.5,582.3 629.4,589.8 630.3,586.2 631.3,586.0 632.2,583.9 633.1,590.9 634.0,612.0 635.0,613.1 635.9,613.1 636.8,616.7 637.7,615.3 638.7,617.4 639.6,617.4 640.5,619.1 641.4,615.6 642.4,615.6 643.3,609.5 644.2,613.0 645.1,605.5 646.1,605.5 647.0,605.5 647.9,614.3 648.8,601.4 649.8,605.1 650.7,603.2 651.6,610.7 652.5,605.3 653.5,604.1 654.4,601.9 655.3,614.8 656.2,610.7 657.2,612.6 658.1,612.6 659.0,615.0 659.9,616.2 660.8,619.3 661.8,619.3 662.7,625.8 663.6,625.8 664.5,625.2 665.5,628.1 666.4,628.1 667.3,627.9 668.2,626.5 669.2,625.2 670.1,625.2 671.0,624.0 671.9,622.9 672.9,616.4 673.8,617.9 674.7,612.4 675.6,607.8 676.6,607.8 677.5,607.6 678.4,607.8 679.3,611.5 680.3,609.9 681.2,605.6 682.1,602.1 683.0,602.1 684.0,593.4 684.9,589.0 685.8,590.6 686.7,589.8 687.7,595.1 688.6,593.9 689.5,590.8 690.4,590.7 691.3,595.9 692.3,597.2 693.2,599.5 694.1,603.6 695.0,608.7 696.0,603.9 696.9,614.7 697.8,611.9 698.7,611.9 699.7,611.9 700.6,604.1 701.5,608.4 702.4,614.7 703.4,614.7 704.3,617.5 705.2,614.5 706.1,612.1 707.1,619.8 708.0,611.8 708.9,609.0 709.8,609.0 710.8,607.2 711.7,606.7 712.6,609.2 713.5,604.0 714.5,609.3 715.4,605.1 716.3,605.1 717.2,606.9 718.2,610.4 719.1,610.4 720.0,617.5 720.9,613.4 721.8,621.4 722.8,621.4 723.7,621.4 724.6,621.4 725.5,607.4 726.5,604.1 727.4,610.0 728.3,606.8 729.2,605.0 730.2,598.6 731.1,598.6 732.0,612.6 732.9,614.1 733.9,615.5 734.8,619.1 735.7,618.3 736.6,617.8 737.6,617.8 738.5,613.8 739.4,614.3 740.3,609.0 741.3,607.0 742.2,596.5 743.1,603.5 744.0,602.6 745.0,604.9 745.9,599.3 746.8,602.7 747.7,593.3 748.7,606.5 749.6,606.5 750.5,605.6 751.4,602.2 752.3,609.1 753.3,603.1 754.2,614.5 755.1,614.5 756.0,613.3 757.0,615.1 757.9,609.1 758.8,609.1 759.7,602.8 760.7,597.6 761.6,597.6 762.5,598.8 763.4,598.8 764.4,607.7 765.3,596.1 766.2,606.9 767.1,603.2 768.1,600.2 769.0,595.4 769.9,590.6 770.8,592.9 771.8,600.3 772.7,604.5 773.6,610.1 774.5,610.5 775.5,606.0 776.4,606.6 777.3,606.6 778.2,607.1 779.2,603.6 780.1,605.3 781.0,607.9 781.9,597.0 782.8,600.1 783.8,598.2 784.7,593.3 785.6,595.6 786.5,594.7 787.5,594.2 788.4,612.1 789.3,607.9 790.2,605.4 791.2,613.9 792.1,615.1 793.0,614.5 793.9,608.6 794.9,609.3 795.8,613.1 796.7,615.1 797.6,608.4 798.6,604.5 799.5,607.6 800.4,614.0 801.3,615.7 802.3,611.9 803.2,585.2 804.1,587.6 805.0,589.9 806.0,587.8 806.9,587.8 807.8,583.1 808.7,585.7 809.7,613.1 810.6,614.7 811.5,615.7 812.4,616.6 813.4,598.5 814.3,601.7 815.2,598.6 816.1,593.7 817.0,591.8 818.0,585.1 818.9,583.1 819.8,594.6 820.7,593.3 821.7,596.9 822.6,598.1 823.5,602.6 824.4,607.5 825.4,608.3 826.3,614.9 827.2,585.6 828.1,567.9 829.1,572.2 830.0,550.4 830.9,552.8 831.8,541.5 832.8,541.5 833.7,566.8 834.6,583.7 835.5,566.5 836.5,552.3 837.4,552.3 838.3,564.7 839.2,564.7 840.2,566.8 841.1,562.5 842.0,575.3 842.9,605.7 843.9,605.5 844.8,598.6 845.7,597.0 846.6,588.7 847.5,592.9 848.5,596.3 849.4,602.0 850.3,600.1 851.2,607.5 852.2,605.8 853.1,618.2 854.0,620.4 854.9,622.5 855.9,595.4 856.8,592.9 857.7,582.9 858.6,586.2 859.6,564.9 860.5,564.8 861.4,560.2 862.3,565.7 863.3,567.4 864.2,571.6 865.1,553.1 866.0,567.4 867.0,566.6 867.9,571.1 868.8,591.2 869.7,579.9 870.7,586.2 871.6,604.1 872.5,611.8 873.4,606.4 874.4,594.9 875.3,586.4 876.2,588.8 877.1,566.8 878.0,558.1 879.0,536.9 879.9,544.1 880.8,547.6 881.7,544.0 882.7,536.1 883.6,528.5 884.5,523.4 885.4,544.6 886.4,526.9 887.3,526.8 888.2,526.8 889.1,537.7 890.1,530.0 891.0,521.9 891.9,515.7 892.8,517.5 893.8,522.5 894.7,495.8 895.6,476.3 896.5,501.0 897.5,513.0 898.4,490.8 899.3,480.4 900.2,471.4 901.2,511.8 902.1,540.3 903.0,537.3 903.9,530.3 904.9,557.4 905.8,573.7 906.7,569.7 907.6,557.5 908.5,554.9 909.5,570.3 910.4,567.0 911.3,550.1 912.2,544.3 913.2,551.4 914.1,525.0 915.0,521.8 915.9,520.9 916.9,526.1 917.8,533.8 918.7,545.0 919.6,553.9 920.6,583.6 921.5,579.6 922.4,577.8 923.3,585.5 924.3,596.1 925.2,600.6 926.1,600.6 927.0,596.5 928.0,588.9 928.9,582.7 929.8,588.6 930.7,586.6 931.7,584.1 932.6,584.1 933.5,589.2 934.4,598.8 935.4,601.9 936.3,593.8 937.2,591.1 938.1,585.3 939.1,563.2 940.0,571.2 940.9,578.9 941.8,584.8 942.7,594.9 943.7,598.1 944.6,596.2 945.5,607.9 946.4,602.3 947.4,579.0 948.3,579.0 949.2,572.3 950.1,569.9 951.1,580.2 952.0,583.1 952.9,588.6 953.8,609.6 954.8,606.4 955.7,600.3 956.6,595.3 957.5,590.7 958.5,587.6 959.4,583.0 960.3,585.4 961.2,571.0 962.2,578.9 963.1,580.8 964.0,573.1 964.9,581.0 965.9,578.0 966.8,571.8 967.7,584.9 968.6,589.7 969.6,592.6 970.5,591.2 971.4,591.4 972.3,590.9 973.2,593.2 974.2,579.6 975.1,578.4 976.0,582.5 976.9,576.7 977.9,559.1 978.8,548.7 979.7,531.1 980.6,532.2 981.6,513.0 982.5,504.7 983.4,491.9 984.3,503.3 985.3,521.7 986.2,535.2 987.1,548.9 988.0,550.1 989.0,534.9 989.9,543.5 990.8,523.1 991.7,495.9 992.7,485.6 993.6,478.4 994.5,472.6 995.4,479.9 996.4,474.7 997.3,492.1 998.2,500.5 999.1,511.4 1000.1,504.5 1001.0,523.8 1001.9,532.3 1002.8,556.2 1003.7,557.8 1004.7,573.4 1005.6,557.2 1006.5,567.2 1007.4,567.5 1008.4,559.2 1009.3,557.2 1010.2,560.7 1011.1,552.8 1012.1,575.1 1013.0,577.2 1013.9,582.5 1014.8,589.2 1015.8,581.4 1016.7,579.4 1017.6,587.9 1018.5,572.6 1019.5,562.2 1020.4,555.2 1021.3,549.3 1022.2,564.0 1023.2,571.0 1024.1,572.8 1025.0,584.1 1025.9,591.9 1026.9,593.3 1027.8,594.3 1028.7,594.3 1029.6,595.9 1030.6,591.6 1031.5,591.8 1032.4,595.6 1033.3,582.2 1034.2,594.8 1035.2,594.8 1036.1,587.6 1037.0,580.6 1037.9,583.7 1038.9,577.3 1039.8,587.7 1040.7,581.8 1041.6,581.2 1042.6,579.4 1043.5,590.2 1044.4,581.5 1045.3,588.2 1046.3,596.8 1047.2,600.1 1048.1,598.2 1049.0,600.5 1050.0,579.5 1050.9,590.1 1051.8,591.4 1052.7,591.4 1053.7,592.9 1054.6,587.5 1055.5,588.7 1056.4,607.0 1057.4,605.0 1058.3,606.6 1059.2,602.8 1060.1,603.6 1061.1,608.8 1062.0,587.8 1062.9,591.8 1063.8,593.7 1064.7,594.9 1065.7,589.4 1066.6,591.4 1067.5,592.1 1068.4,616.8 1069.4,611.5 1070.3,604.1 1071.2,604.1 1072.1,580.0 1073.1,580.0 1074.0,582.0 1074.9,578.6 1075.8,580.3 1076.8,576.7 1077.7,556.5 1078.6,562.8 1079.5,540.1 1080.5,537.4 1081.4,537.6 1082.3,541.2 1083.2,552.1 1084.2,570.6 1085.1,557.6 1086.0,577.4 1086.9,574.8 1087.9,578.1 1088.8,576.8 1089.7,561.3 1090.6,560.7 1091.6,596.1 1092.5,576.4 1093.4,559.2 1094.3,560.2 1095.3,561.5 1096.2,577.1 1097.1,576.0 1098.0,567.7 1098.9,567.9 1099.9,565.5 1100.8,565.0 1101.7,558.4 1102.6,558.4 1103.6,555.6 1104.5,568.1 1105.4,572.6 1106.3,592.4 1107.3,593.6 1108.2,597.0 1109.1,576.6 1110.0,577.9 1111.0,559.9 1111.9,577.8 1112.8,581.9 1113.7,580.4 1114.7,560.5 1115.6,541.7 1116.5,532.9 1117.4,546.3 1118.4,542.0 1119.3,538.8 1120.2,521.1 1121.1,526.6 1122.1,558.9 1123.0,548.4 1123.9,552.7 1124.8,556.1 1125.8,555.1 1126.7,573.4 1127.6,590.9 1128.5,584.8 1129.4,599.0 1130.4,595.8 1131.3,570.3 1132.2,574.5 1133.1,575.4 1134.1,571.0 1135.0,583.1 1135.9,585.8 1136.8,583.1 1137.8,587.2 1138.7,586.4 1139.6,580.2 1140.5,566.9 1141.5,567.8 1142.4,570.9 1143.3,575.5 1144.2,589.9 1145.2,591.2 1146.1,597.4 1147.0,614.3 1147.9,608.4 1148.9,612.0 1149.8,613.9 1150.7,620.8 1151.6,617.1 1152.6,614.5 1153.5,610.8 1154.4,614.0 1155.3,613.7 1156.3,609.8 1157.2,609.8 1158.1,611.8 1159.0,607.5 1159.9,580.1 1160.9,581.6 1161.8,579.2 1162.7,583.1 1163.6,583.2 1164.6,585.5 1165.5,582.6 1166.4,581.4 1167.3,575.9 1168.3,548.3 1169.2,548.3 1170.1,547.8 1171.0,521.9 1172.0,514.2 1172.9,545.7 1173.8,548.5 1174.7,553.2 1175.7,519.2 1176.6,517.7 1177.5,538.9 1178.4,527.6 1179.4,528.2 1180.3,532.2 1181.2,555.9 1182.1,587.6 1183.1,590.5 1184.0,589.3 1184.9,616.9 1185.8,607.1 1186.8,600.6 1187.7,586.2 1188.6,588.5 1189.5,581.2 1190.4,587.1 1191.4,585.3 1192.3,596.2 1193.2,601.5 1194.1,617.4 1195.1,589.0 1196.0,595.1 1196.9,593.5 1197.8,590.2 1198.8,564.8 1199.7,552.7 1200.6,551.4 1201.5,557.6 1202.5,557.2 1203.4,547.9 1204.3,554.1 1205.2,574.9 1206.2,565.0 1207.1,567.4 1208.0,587.4 1208.9,586.7 1209.9,596.2 1210.8,594.7 1211.7,593.8 1212.6,617.0 1213.6,615.4 1214.5,617.5 1215.4,618.8 1216.3,614.8 1217.3,588.4 1218.2,589.2 1219.1,587.9 1220.0,586.6 1220.9,584.3 1221.9,584.3 1222.8,586.0 1223.7,613.9 1224.6,594.4 1225.6,595.8 1226.5,594.0 1227.4,592.8 1228.3,589.4 1229.3,592.0 1230.2,590.6 1231.1,608.1 1232.0,603.9 1233.0,588.5 1233.9,589.1 1234.8,591.2 1235.7,590.2 1236.7,591.6 1237.6,596.4 1238.5,578.7 1239.4,596.1 1240.4,597.5 1241.3,599.0 1242.2,600.0 1243.1,578.3 1244.1,578.8 1245.0,600.7 1245.9,603.4 1246.8,605.0 1247.8,604.3 1248.7,585.0 1249.6,606.7 1250.5,606.8 1251.5,597.3 1252.4,558.2 1253.3,556.4 1254.2,558.0 1255.1,578.3 1256.1,576.0 1257.0,577.2 1257.9,580.6 1258.8,588.4 1259.8,582.6 1260.7,582.6 1261.6,582.6 1262.5,584.2 1263.5,582.6 1264.4,588.8 1265.3,610.2 1266.2,617.8 1267.2,617.8 1268.1,613.0 1269.0,613.8 1269.9,615.4 1270.9,615.4 1271.8,625.2 1272.7,625.2 1273.6,625.2 1274.6,606.6 1275.5,606.6 1276.4,601.6 1277.3,600.2 1278.3,548.4 1279.2,548.4 1280.1,548.4 1281.0,571.8 1282.0,568.8 1282.9,573.8 1283.8,571.9 1284.7,622.7 1285.6,620.7 1286.6,605.0 1287.5,604.0 1288.4,606.9 1289.3,603.8 1290.3,585.1 1291.2,581.3 1292.1,577.7 1293.0,587.6 1294.0,565.0 1294.9,549.6 1295.8,543.6 1296.7,562.6 1297.7,558.0 1298.6,561.2 1299.5,563.3 1300.4,555.8 1301.4,571.3 1302.3,572.5 1303.2,574.9 1304.1,561.3 1305.1,563.8 1306.0,550.4 1306.9,579.5 1307.8,573.3 1308.8,581.0 1309.7,581.8 1310.6,604.8 1311.5,601.4 1312.5,618.5 1313.4,587.5 1314.3,593.7 1315.2,583.2 1316.1,575.0 1317.1,558.3 1318.0,556.9 1318.9,555.7 1319.8,587.5 1320.8,582.7 1321.7,578.2 1322.6,578.3 1323.5,595.0 1324.5,596.5 1325.4,595.1 1326.3,585.3 1327.2,588.0 1328.2,601.3 1329.1,609.4 1330.0,606.7 1330.9,595.0 1331.9,596.7 1332.8,607.7 1333.7,609.8 1334.6,595.4 1335.6,592.3 1336.5,593.8 1337.4,608.3 1338.3,605.8 1339.3,605.8 1340.2,605.8 1341.1,621.8 1342.0,619.9 1343.0,607.7 1343.9,608.2 1344.8,609.7 1345.7,609.7 1346.6,609.7 1347.6,608.3 1348.5,613.3 1349.4,608.6 1350.3,608.3 1351.3,599.7 1352.2,599.7 1353.1,591.1 1354.0,592.4 1355.0,592.4 1355.9,610.0 1356.8,603.2 1357.7,611.9 1358.7,578.5 1359.6,585.2 1360.5,585.2 1361.4,585.2 1362.4,584.0 1363.3,585.2 1364.2,574.9 1365.1,607.5 1366.1,607.9 1367.0,601.8 1367.9,591.8 1368.8,590.3 1369.8,596.3 1370.7,607.1 1371.6,607.9 1372.5,609.5 1373.5,613.6 1374.4,621.4 1375.3,622.6 1376.2,622.6 1377.2,622.1 1378.1,621.3 1379.0,612.3 1379.9,601.1 1380.8,600.9 1381.8,603.0 1382.7,603.0 1383.6,595.5 1384.5,594.9 1385.5,602.3 1386.4,615.4 1387.3,615.4 1388.2,604.5 1389.2,604.0 1390.1,613.0 1391.0,611.4 1391.9,611.2 1392.9,605.9 1393.8,608.4 1394.7,598.3 1395.6,596.0 1396.6,592.8 1397.5,587.9 1398.4,589.8 1399.3,588.8 1400.3,588.2 1401.2,609.1 1402.1,611.9 1403.0,615.2 1404.0,614.7 1404.9,601.2 1405.8,577.9 1406.7,566.7 1407.7,563.9 1408.6,555.1 1409.5,554.0 1410.4,554.3 1411.3,567.8 1412.3,596.0 1413.2,607.8 1414.1,595.4 1415.0,583.9 1416.0,584.0 1416.9,589.3 1417.8,583.1 1418.7,580.0 1419.7,570.7 1420.6,583.0 1421.5,601.7 1422.4,599.2 1423.4,581.8 1424.3,585.0 1425.2,588.0 1426.1,595.6 1427.1,597.9 1428.0,597.3 1428.9,596.1 1429.8,615.1 1430.8,618.0 1431.7,618.5 1432.6,619.1 1433.5,619.8 1434.5,621.0 1435.4,608.0 1436.3,609.3 1437.2,609.3 1438.2,596.7 1439.1,597.9 1440.0,597.9" fill="none" stroke="#E45756" stroke-width="3.4"/>
</g>
<text x="1300" y="127" class="small"><tspan fill="#4C78A8">Daily total</tspan>  <tspan fill="#E45756">7-day average</tspan></text>
<text x="830.0" y="800" class="small" text-anchor="middle">Kyiv date</text>
<text x="30" y="410.0" class="small" text-anchor="middle" transform="rotate(-90 30 410.0)">Alarm hours per day</text>
</svg>